<?xml version="1.0" encoding="UTF-8" standalone="no"?>
<!-- Created with Inkscape (http://www.inkscape.org/) -->

<svg
   width="142.40588"
   height="150"
   viewBox="0 0 37.678223 39.6875"
   version="1.1"
   id="svg5"
   xml:space="preserve"
   inkscape:version="1.2.2 (732a01da63, 2022-12-09)"
   sodipodi:docname="hoodie.svg"
   xmlns:inkscape="http://www.inkscape.org/namespaces/inkscape"
   xmlns:sodipodi="http://sodipodi.sourceforge.net/DTD/sodipodi-0.dtd"
   xmlns="http://www.w3.org/2000/svg"
   xmlns:svg="http://www.w3.org/2000/svg"><sodipodi:namedview
     id="namedview7"
     pagecolor="#505050"
     bordercolor="#eeeeee"
     borderopacity="1"
     inkscape:showpageshadow="0"
     inkscape:pageopacity="0"
     inkscape:pagecheckerboard="0"
     inkscape:deskcolor="#505050"
     inkscape:document-units="px"
     showgrid="false"
     inkscape:zoom="0.25"
     inkscape:cx="19884"
     inkscape:cy="-1044"
     inkscape:window-width="1366"
     inkscape:window-height="697"
     inkscape:window-x="-8"
     inkscape:window-y="-8"
     inkscape:window-maximized="1"
     inkscape:current-layer="layer1" /><defs
     id="defs2" /><g
     inkscape:label="Layer 1"
     inkscape:groupmode="layer"
     id="layer1"
     transform="translate(-5290.8926,126.12944)"><g
       id="g3706"
       transform="matrix(0.2616552,0,0,0.2616552,5291.1542,-126.39135)"
       style="fill:#2d3371;fill-opacity:1"
       inkscape:export-filename="..\..\Downloads\VIT Bhopal University seal.png"
       inkscape:export-xdpi="96"
       inkscape:export-ydpi="96"><path
         fill="#2e3191"
         d="m 17.39,144.421 0.17,-0.061 0.2,-0.079 c 0.03,-0.011 0.09,-0.04 0.16,-0.061 0.07,-0.03 0.15,-0.04 0.24,-0.04 0.35,-0.01 0.68,0.08 0.97,0.271 0.3,0.18 0.45,0.51 0.48,0.96 0.01,0.399 -0.12,0.71 -0.4,0.93 -0.26,0.24 -0.64,0.34 -1.12,0.37 -0.34,0 -0.62,-0.13 -0.8,-0.45 -0.19,-0.29 -0.29,-0.66 -0.31,-1.09 -0.01,-0.55 0.14,-1.07 0.46,-1.55 0.34,-0.49 0.91,-0.761 1.74,-0.771 0.81,-0.02 1.44,0.16 1.89,0.55 0.44,0.42 0.68,0.98 0.71,1.7 0.01,0.69 -0.22,1.22 -0.72,1.63 -0.23,0.17 -0.54,0.32 -0.95,0.44 -0.38,0.12 -0.79,0.189 -1.19,0.2 -0.29,0 -0.49,0.05 -0.6,0.09 -0.11,0.04 -0.18,0.12 -0.17,0.22 l -0.03,0.061 -0.03,0.02 0.06,0.16 7.97,-0.25 v 0.45 l -8.66,0.27 -0.02,-0.54 0.15,-0.35 c 0.05,-0.101 0.16,-0.19 0.32,-0.271 l 0.27,-0.069 0.25,-0.021 h 0.15 c 0.27,-0.02 0.51,-0.06 0.74,-0.12 l 0.31,-0.1 0.15,-0.061 0.19,-0.09 c 0.22,-0.1 0.44,-0.279 0.66,-0.56 0.23,-0.271 0.37,-0.54 0.41,-0.8 l 0.03,-0.46 c -0.01,-0.24 -0.07,-0.5 -0.19,-0.79 -0.11,-0.261 -0.33,-0.5 -0.63,-0.721 -0.32,-0.199 -0.69,-0.31 -1.16,-0.279 -0.36,0.01 -0.67,0.1 -0.93,0.29 -0.24,0.199 -0.45,0.39 -0.57,0.609 -0.13,0.173 -0.19,0.303 -0.2,0.363 z m -0.11,0.88 c 0.01,0.1 0.03,0.22 0.06,0.34 0.04,0.12 0.08,0.271 0.15,0.4 0.14,0.29 0.36,0.439 0.64,0.43 0.36,-0.01 0.58,-0.09 0.67,-0.27 0.07,-0.16 0.11,-0.4 0.1,-0.71 0,-0.23 -0.07,-0.45 -0.19,-0.7 -0.12,-0.221 -0.36,-0.33 -0.7,-0.32 -0.22,0.021 -0.4,0.1 -0.56,0.271 l -0.07,0.119 -0.07,0.17 c -0.02,0.06 -0.03,0.16 -0.03,0.27 z"
         id="path3582"
         style="fill:#2d3371;fill-opacity:1" /><path
         fill="#2e3191"
         d="m 28.78,141.951 c -0.52,0.199 -0.88,0.38 -1.09,0.569 -0.21,0.17 -0.4,0.391 -0.56,0.69 -0.08,0.16 -0.13,0.32 -0.17,0.479 -0.04,0.16 -0.07,0.351 -0.1,0.551 -0.01,0.399 0.01,0.71 0.06,0.89 0.03,0.07 0.05,0.12 0.08,0.13 0.05,-0.13 0.13,-0.28 0.25,-0.45 0.12,-0.149 0.27,-0.26 0.45,-0.3 0.29,-0.08 0.47,-0.11 0.58,-0.1 0.09,-0.011 0.18,-0.011 0.26,0.01 0.05,0.01 0.11,0.01 0.14,0.04 0.04,0 0.08,0 0.14,0.02 0.34,0.09 0.6,0.42 0.74,0.971 0.12,0.449 0.12,0.84 -0.04,1.159 -0.14,0.33 -0.46,0.551 -0.96,0.7 -0.4,0.101 -0.76,0.021 -1.11,-0.25 -0.34,-0.26 -0.62,-0.729 -0.81,-1.43 -0.26,-1.01 -0.23,-1.87 0.11,-2.57 0.18,-0.33 0.44,-0.62 0.8,-0.88 0.17,-0.12 0.36,-0.22 0.57,-0.32 0.19,-0.08 0.4,-0.17 0.62,-0.22 0.35,-0.11 0.66,-0.16 0.89,-0.18 l 0.17,-0.01 h 0.16 l 0.14,0.01 0.2,0.02 0.22,-0.17 0.22,-0.12 c 0.22,-0.14 0.43,-0.22 0.62,-0.27 1.09,-0.29 1.96,-0.28 2.62,0.06 0.65,0.351 1.1,0.98 1.34,1.87 0.07,0.23 0.09,0.5 0.08,0.84 -0.01,0.37 -0.1,0.721 -0.28,1.08 -0.18,0.351 -0.42,0.62 -0.74,0.79 l -0.48,0.25 -0.04,0.04 -0.17,-0.3 0.09,-0.021 0.16,-0.079 c 0.05,-0.03 0.15,-0.11 0.33,-0.271 0.17,-0.16 0.31,-0.439 0.41,-0.86 0.05,-0.189 0.07,-0.39 0.07,-0.619 -0.01,-0.21 -0.04,-0.431 -0.11,-0.66 -0.2,-0.75 -0.59,-1.28 -1.22,-1.63 -0.6,-0.33 -1.16,-0.431 -1.71,-0.271 l -0.2,0.05 c -0.09,0.011 -0.14,0.04 -0.15,0.04 -0.04,0.01 -0.07,0.021 -0.12,0.04 -0.04,0.021 -0.09,0.04 -0.12,0.07 l -0.43,0.22 c 0.09,-0.02 0.21,-0.02 0.32,-0.02 0.12,0.01 0.25,0.05 0.41,0.08 0.29,0.08 0.59,0.29 0.91,0.619 0.32,0.33 0.54,0.721 0.68,1.2 0.08,0.32 0.12,0.62 0.13,0.91 0,0.29 -0.04,0.58 -0.12,0.9 -0.16,0.569 -0.56,0.96 -1.22,1.149 -0.2,0.061 -0.43,0.07 -0.71,0.051 -0.26,-0.021 -0.54,-0.171 -0.83,-0.461 -0.29,-0.289 -0.53,-0.779 -0.72,-1.47 -0.09,-0.33 -0.14,-0.62 -0.18,-0.83 -0.02,-0.22 -0.02,-0.42 0,-0.6 0.01,-0.15 0.04,-0.29 0.09,-0.45 0.06,-0.15 0.12,-0.32 0.21,-0.49 l 0.26,-0.33 -0.41,-0.01 c -0.05,-0.01 -0.13,0 -0.23,0.01 -0.1,0.011 -0.19,0.04 -0.31,0.07 l -0.06,0.01 -0.06,0.011 z m -1.04,3.01 c -0.16,0.05 -0.29,0.189 -0.4,0.43 -0.11,0.25 -0.14,0.45 -0.1,0.641 l 0.11,0.25 c 0.01,0.029 0.04,0.109 0.1,0.189 0.06,0.09 0.15,0.2 0.28,0.33 0.18,0.23 0.42,0.29 0.7,0.22 0.19,-0.04 0.35,-0.17 0.48,-0.359 0.13,-0.181 0.15,-0.44 0.05,-0.78 l -0.01,-0.05 -0.02,-0.061 -0.09,-0.26 c -0.01,-0.06 -0.05,-0.12 -0.12,-0.21 -0.03,-0.04 -0.06,-0.06 -0.1,-0.11 -0.03,-0.02 -0.07,-0.069 -0.13,-0.12 -0.17,-0.16 -0.42,-0.19 -0.75,-0.11 z m 2.79,-3.05 c -0.39,0.21 -0.62,0.56 -0.67,1.09 -0.07,0.53 -0.03,1.01 0.08,1.439 0.16,0.561 0.39,1.011 0.68,1.36 0.29,0.34 0.67,0.45 1.14,0.32 0.31,-0.09 0.54,-0.34 0.68,-0.771 0.12,-0.43 0.11,-0.93 -0.04,-1.49 -0.17,-0.63 -0.44,-1.109 -0.79,-1.43 -0.34,-0.318 -0.7,-0.498 -1.08,-0.518 z"
         id="path3584"
         style="fill:#2d3371;fill-opacity:1" /><path
         fill="#2e3191"
         d="m 39.79,138.181 c 0.42,-0.13 0.79,-0.18 1.08,-0.16 0.3,0.03 0.59,0.15 0.87,0.32 0.29,0.18 0.54,0.42 0.71,0.66 l 0.11,0.22 0.19,0.34 0.11,0.271 0.1,0.29 c 0.1,0.27 0.16,0.649 0.2,1.069 0,0.221 0,0.41 -0.04,0.61 -0.03,0.19 -0.09,0.39 -0.19,0.58 l -0.14,0.2 -0.21,0.26 -0.31,0.2 -0.24,0.109 -1.44,0.53 0.05,0.061 0.06,0.06 0.08,0.06 c 0.03,0.021 0.06,0.051 0.1,0.051 0.05,0.02 0.11,0.04 0.18,0.06 l 0.25,-0.05 0.09,-0.04 0.09,-0.021 0.3,-0.109 0.19,-0.061 0.11,-0.029 0.1,-0.021 0.2,0.57 -0.16,-0.05 c -0.04,-0.011 -0.1,-0.011 -0.18,0 l -0.2,0.13 c -0.07,0.02 -0.14,0.1 -0.2,0.24 l -0.07,0.229 0.01,0.1 -0.01,0.11 -0.04,0.12 c -0.05,0.28 -0.25,0.52 -0.6,0.69 l -0.51,0.26 -0.54,0.21 -0.61,0.18 -0.65,0.21 c -0.42,0.15 -0.72,-0.02 -0.88,-0.49 l -0.05,-0.18 -0.03,-0.18 c -0.02,-0.181 0.06,-0.37 0.22,-0.51 l 0.25,-0.221 0.27,-0.189 0.11,0.1 0.1,0.1 c 0.05,0.051 0.08,0.101 0.08,0.131 l -0.23,0.119 c -0.09,0.04 -0.16,0.11 -0.21,0.25 -0.05,0.15 -0.05,0.29 0,0.45 0.04,0.15 0.2,0.23 0.48,0.271 l 0.15,-0.04 0.18,-0.04 0.47,-0.14 0.1,-0.04 c 0.07,-0.04 0.11,-0.04 0.13,-0.04 0.09,-0.021 0.14,-0.051 0.16,-0.08 l 0.19,-0.12 0.23,-0.17 c 0.25,-0.16 0.39,-0.311 0.46,-0.44 l 0.06,-0.22 c 0.01,-0.061 0.04,-0.14 0.09,-0.22 l 0.16,-0.17 0.17,-0.171 v -0.029 c -0.08,0.029 -0.15,0.029 -0.25,0.029 -0.09,0.021 -0.18,0.011 -0.3,0 -0.18,-0.04 -0.34,-0.1 -0.46,-0.199 l -0.29,-0.301 -2.55,0.82 -1.74,-5.16 0.8,-0.27 1.65,4.859 1.66,-0.56 -1.01,-2.99 c -0.17,-0.52 -0.21,-0.93 -0.11,-1.27 0.09,-0.34 0.25,-0.601 0.48,-0.771 0.1,-0.08 0.2,-0.16 0.31,-0.22 0.11,-0.067 0.22,-0.117 0.31,-0.157 z m 1.63,4.86 c 0.23,-0.09 0.47,-0.2 0.72,-0.37 0.25,-0.18 0.43,-0.45 0.57,-0.82 0.05,-0.16 0.07,-0.359 0.05,-0.63 l -0.05,-0.39 -0.11,-0.44 c -0.28,-0.82 -0.66,-1.37 -1.13,-1.64 -0.47,-0.271 -0.92,-0.33 -1.3,-0.2 -0.46,0.14 -0.73,0.38 -0.8,0.69 -0.07,0.3 -0.05,0.619 0.06,0.939 l 0.02,0.09 0.04,0.07 0.02,0.1 0.02,0.04 0.96,2.88 z"
         id="path3586"
         style="fill:#2d3371;fill-opacity:1" /><path
         fill="#2e3191"
         d="m 49.59,140.601 -4.6,1.57 -1.76,-5.12 0.66,-0.25 1.66,4.85 3.26,-1.13 -1.63,-4.77 0.66,-0.22 z m -3.95,-6.56 0.07,0.16 c 0.06,0.18 0.04,0.35 -0.04,0.52 -0.05,0.11 -0.19,0.26 -0.46,0.43 l -0.06,0.03 -0.07,0.01 c -0.11,0.051 -0.28,0.051 -0.48,0.011 -0.19,-0.051 -0.32,-0.131 -0.4,-0.25 l -0.12,-0.261 c -0.09,-0.29 -0.06,-0.52 0.12,-0.699 l 0.25,-0.16 0.18,-0.101 c 0.17,-0.06 0.37,-0.08 0.55,-0.01 0.17,0.04 0.32,0.15 0.46,0.32 z"
         id="path3588"
         style="fill:#2d3371;fill-opacity:1" /><path
         fill="#2e3191"
         d="m 50.44,133.661 c -0.31,0.37 -0.46,0.85 -0.46,1.409 -0.01,0.57 0.08,1.15 0.26,1.74 0.21,0.62 0.49,1.141 0.82,1.51 0.35,0.381 0.7,0.631 1.08,0.711 0.32,0.06 0.63,0.1 0.95,0.09 l 0.64,-0.09 c -0.08,0 -0.18,-0.03 -0.28,-0.061 l -0.36,-0.15 c -0.24,-0.119 -0.45,-0.43 -0.62,-0.939 -0.09,-0.29 -0.09,-0.61 0.03,-0.95 0.1,-0.37 0.35,-0.6 0.74,-0.74 0.4,-0.13 0.79,-0.109 1.15,0.051 0.37,0.17 0.62,0.46 0.75,0.89 0.18,0.55 0.11,1.01 -0.2,1.35 -0.32,0.34 -0.73,0.61 -1.25,0.78 -0.36,0.11 -0.81,0.16 -1.35,0.12 -0.54,-0.021 -1.07,-0.22 -1.62,-0.59 -0.55,-0.37 -0.95,-0.98 -1.22,-1.811 -0.32,-1.01 -0.31,-1.92 0.04,-2.739 0.37,-0.79 1.05,-1.36 2.04,-1.681 0.62,-0.22 1.14,-0.22 1.54,-0.05 0.42,0.18 0.68,0.46 0.8,0.83 0.17,0.5 0.15,0.91 -0.05,1.2 -0.2,0.319 -0.51,0.55 -0.97,0.689 -0.31,0.11 -0.63,0.101 -0.96,-0.029 -0.33,-0.131 -0.54,-0.351 -0.66,-0.71 -0.14,-0.421 -0.17,-0.721 -0.11,-0.94 0.06,-0.219 0.14,-0.4 0.26,-0.51 l 0.28,-0.23 -0.02,0.01 -0.03,0.011 -0.05,0.01 -0.02,0.01 -0.28,0.11 -0.16,0.06 -0.15,0.099 c -0.13,0.13 -0.32,0.3 -0.56,0.54 z m 1.68,-0.79 c -0.32,0.109 -0.49,0.29 -0.54,0.59 -0.05,0.3 -0.04,0.56 0.04,0.77 v 0.061 l 0.02,0.029 c 0.02,0.11 0.08,0.211 0.14,0.28 0.08,0.101 0.17,0.19 0.3,0.29 0.19,0.15 0.44,0.18 0.72,0.09 0.26,-0.09 0.43,-0.26 0.5,-0.51 0.05,-0.15 0.06,-0.27 0.06,-0.39 v -0.16 l -0.06,-0.17 c -0.1,-0.34 -0.27,-0.601 -0.46,-0.75 -0.2,-0.19 -0.43,-0.22 -0.72,-0.13 z m 1.16,3.71 c -0.21,0.109 -0.35,0.3 -0.43,0.58 -0.06,0.29 -0.06,0.52 -0.01,0.68 0.07,0.2 0.21,0.39 0.42,0.6 0.23,0.19 0.45,0.24 0.7,0.17 l 0.07,-0.02 c 0.15,-0.05 0.29,-0.16 0.42,-0.34 0.14,-0.2 0.16,-0.47 0.05,-0.78 l -0.04,-0.13 -0.02,-0.07 -0.01,-0.02 -0.01,-0.05 c -0.02,-0.07 -0.06,-0.131 -0.11,-0.221 -0.05,-0.09 -0.12,-0.18 -0.25,-0.279 -0.19,-0.171 -0.41,-0.19 -0.67,-0.131 l -0.05,0.011 z"
         id="path3590"
         style="fill:#2d3371;fill-opacity:1" /><polygon
         fill="#2e3191"
         points="61.52,136.971 56.82,138.271 55.39,133.021 56.07,132.831 57.43,137.781 60.76,136.871 59.43,132.011 60.11,131.831 "
         id="polygon3592"
         style="fill:#2d3371;fill-opacity:1" /><path
         fill="#2e3191"
         d="m 66.73,131.761 0.17,-0.06 0.19,-0.08 c 0.04,-0.011 0.09,-0.011 0.16,-0.04 0.09,-0.021 0.16,-0.04 0.26,-0.021 0.34,0 0.67,0.101 0.96,0.3 0.29,0.2 0.42,0.54 0.42,0.99 -0.01,0.391 -0.15,0.7 -0.43,0.9 -0.29,0.21 -0.67,0.319 -1.14,0.319 -0.35,-0.01 -0.6,-0.17 -0.78,-0.489 -0.18,-0.3 -0.28,-0.67 -0.28,-1.11 0.01,-0.54 0.2,-1.03 0.55,-1.53 0.34,-0.46 0.94,-0.71 1.76,-0.689 0.82,0.02 1.43,0.229 1.86,0.649 0.429,0.42 0.64,0.99 0.63,1.74 -0.021,0.67 -0.271,1.2 -0.78,1.58 -0.24,0.17 -0.56,0.3 -0.96,0.4 -0.4,0.109 -0.8,0.16 -1.21,0.16 -0.28,-0.011 -0.49,0.02 -0.6,0.05 -0.12,0.05 -0.17,0.109 -0.18,0.21 l -0.03,0.069 -0.03,0.03 0.06,0.16 7.97,0.1 -0.01,0.46 -8.67,-0.109 0.01,-0.55 0.15,-0.351 c 0.06,-0.109 0.16,-0.189 0.32,-0.26 l 0.29,-0.06 0.23,-0.011 h 0.15 c 0.26,0 0.51,-0.02 0.75,-0.09 l 0.29,-0.08 0.17,-0.05 0.2,-0.08 c 0.21,-0.09 0.44,-0.26 0.69,-0.53 0.24,-0.27 0.38,-0.51 0.44,-0.77 l 0.04,-0.47 c 0.01,-0.25 -0.04,-0.521 -0.14,-0.801 -0.1,-0.27 -0.29,-0.52 -0.6,-0.729 -0.29,-0.23 -0.68,-0.34 -1.14,-0.351 -0.36,0 -0.68,0.08 -0.95,0.271 -0.26,0.17 -0.46,0.37 -0.6,0.57 -0.12,0.153 -0.19,0.273 -0.19,0.353 z m -0.17,0.86 c 0,0.1 0.01,0.22 0.05,0.34 0.03,0.13 0.07,0.27 0.14,0.42 0.13,0.29 0.33,0.45 0.62,0.45 0.36,0 0.57,-0.08 0.67,-0.23 0.08,-0.17 0.12,-0.42 0.13,-0.72 0,-0.22 -0.05,-0.45 -0.16,-0.68 -0.12,-0.24 -0.34,-0.341 -0.7,-0.351 -0.2,-0.01 -0.39,0.07 -0.56,0.23 l -0.07,0.12 -0.07,0.159 c -0.02,0.062 -0.05,0.152 -0.05,0.262 z"
         id="path3594"
         style="fill:#2d3371;fill-opacity:1" /><path
         fill="#2e3191"
         d="m 82.7,131.711 0.45,0.12 c 0.149,0.029 0.22,0.05 0.229,0.06 l -0.94,5.29 -4.02,-0.689 0.02,-0.101 0.021,-0.149 0.021,-0.131 0.02,-0.069 0.01,-0.05 0.01,-0.051 -0.01,0.011 c -0.06,0.079 -0.18,0.17 -0.35,0.279 -0.16,0.101 -0.391,0.12 -0.69,0.08 l -0.12,-0.02 -0.1,-0.011 -0.07,-0.039 -0.109,-0.011 -0.12,-0.069 c -0.14,-0.061 -0.261,-0.15 -0.38,-0.28 -0.211,-0.21 -0.24,-0.68 -0.11,-1.42 l 0.649,-3.67 0.131,0.04 0.109,0.01 0.101,0.02 0.11,0.011 -0.67,3.819 c -0.061,0.311 -0.031,0.551 0.079,0.761 0.101,0.22 0.29,0.359 0.54,0.39 0.35,0.07 0.6,0 0.76,-0.23 0.15,-0.22 0.26,-0.489 0.311,-0.79 l 0.65,-3.67 0.75,0.13 -0.761,4.921 2.64,0.479 z"
         id="path3596"
         style="fill:#2d3371;fill-opacity:1" /><path
         fill="#2e3191"
         d="m 86.49,138.251 -0.69,-0.16 1.29,-4.98 -1.77,-0.449 -1.291,4.96 -0.309,-0.11 1.359,-5.229 3.779,0.979 -0.039,0.29 -1.041,-0.27 z m 1.47,-7.41 -0.04,0.17 c -0.029,0.18 -0.15,0.32 -0.32,0.42 -0.109,0.07 -0.33,0.11 -0.609,0.11 l -0.08,-0.01 -0.051,-0.021 c -0.139,-0.04 -0.26,-0.12 -0.42,-0.27 -0.149,-0.171 -0.189,-0.32 -0.189,-0.44 l 0.05,-0.25 c 0.08,-0.32 0.24,-0.49 0.46,-0.521 h 0.311 l 0.199,0.021 c 0.16,0.05 0.311,0.14 0.45,0.26 0.149,0.121 0.229,0.311 0.239,0.531 z"
         id="path3598"
         style="fill:#2d3371;fill-opacity:1" /><path
         fill="#2e3191"
         d="m 97.32,135.831 -2.26,7.279 -0.681,-0.159 0.66,-2.16 -4.069,-1.26 0.09,-0.25 c 0.049,0.01 0.189,0 0.399,-0.04 0.229,-0.04 0.5,-0.21 0.83,-0.53 0.319,-0.3 0.59,-0.82 0.8,-1.5 0.21,-0.68 0.23,-1.21 0.051,-1.68 -0.19,-0.471 -0.591,-0.801 -1.25,-1 -0.431,-0.141 -0.82,-0.141 -1.181,0 -0.33,0.119 -0.649,0.319 -0.899,0.59 l -0.281,0.35 -0.109,0.16 -0.09,0.16 -0.12,0.229 -0.11,0.23 c -0.02,0.05 -0.02,0.109 0,0.14 0.101,-0.05 0.28,-0.12 0.51,-0.21 0.221,-0.07 0.431,-0.07 0.66,0 0.58,0.17 0.94,0.43 1.11,0.771 0.181,0.33 0.19,0.71 0.05,1.109 -0.09,0.37 -0.32,0.66 -0.699,0.88 -0.36,0.24 -0.791,0.28 -1.26,0.13 -0.41,-0.119 -0.671,-0.35 -0.811,-0.67 -0.04,-0.09 -0.061,-0.159 -0.08,-0.229 -0.01,-0.05 -0.03,-0.16 -0.061,-0.29 -0.02,-0.18 -0.029,-0.38 -0.02,-0.59 l 0.03,-0.21 0.069,-0.38 0.131,-0.511 c 0.06,-0.18 0.119,-0.359 0.199,-0.529 0.08,-0.16 0.2,-0.34 0.351,-0.551 0.26,-0.38 0.62,-0.68 1.1,-0.92 0.46,-0.229 1.011,-0.229 1.63,-0.04 0.45,0.15 0.84,0.301 1.141,0.48 0.289,0.17 0.55,0.51 0.76,1.01 0.21,0.49 0.199,1.141 -0.04,1.93 -0.19,0.591 -0.399,1.03 -0.67,1.29 -0.261,0.25 -0.5,0.41 -0.74,0.48 -0.2,0.04 -0.351,0.07 -0.489,0.07 l 3.18,0.989 1.49,-4.819 z m -7.211,0.71 c -0.239,-0.061 -0.479,-0.05 -0.709,0.09 -0.211,0.149 -0.33,0.32 -0.391,0.52 l -0.01,0.04 -0.02,0.04 -0.01,0.021 c -0.111,0.319 -0.111,0.609 0,0.89 0.1,0.28 0.279,0.46 0.569,0.55 0.19,0.061 0.399,0.021 0.61,-0.109 0.229,-0.15 0.379,-0.36 0.449,-0.641 0.121,-0.39 0.141,-0.689 0.07,-0.93 -0.087,-0.211 -0.267,-0.381 -0.558,-0.471 z"
         id="path3600"
         style="fill:#2d3371;fill-opacity:1" /><path
         fill="#2e3191"
         d="m 107.99,139.221 -0.11,0.38 -1.521,-0.569 -0.539,1.75 0.459,0.149 0.471,0.16 c 0.07,0.04 0.141,0.06 0.2,0.08 0.079,0.04 0.149,0.09 0.22,0.12 0.24,0.13 0.471,0.38 0.689,0.72 0.07,0.16 0.101,0.37 0.101,0.62 0,0.13 0,0.26 -0.021,0.35 -0.02,0.11 -0.029,0.23 -0.08,0.36 l -0.109,0.31 c -0.02,0.051 -0.04,0.091 -0.061,0.15 -0.01,0.03 -0.039,0.08 -0.09,0.17 l -0.17,0.24 -0.08,0.109 -0.119,0.091 c -0.221,0.189 -0.51,0.34 -0.851,0.439 l -0.42,0.07 c -0.13,0.02 -0.28,0.02 -0.45,0.02 h -0.24 l -0.229,-0.01 -0.229,-0.04 -0.25,-0.08 -0.57,-0.14 -0.62,-0.16 -0.101,-0.04 -0.09,-0.02 -0.08,-0.021 -0.06,-0.02 -0.12,-0.03 -0.12,-0.05 -0.12,-0.03 -0.109,-0.04 c -0.291,-0.09 -0.5,-0.11 -0.6,-0.1 l -0.271,0.12 c -0.05,0.05 -0.091,0.109 -0.13,0.149 l -0.07,0.51 c -0.029,0.09 -0.13,0.15 -0.25,0.2 -0.13,0.04 -0.25,0.05 -0.37,0.021 l -0.13,-0.07 c -0.061,-0.021 -0.109,-0.1 -0.189,-0.19 -0.021,-0.109 -0.041,-0.21 0,-0.359 l 0.129,-0.271 c 0.061,-0.12 0.23,-0.26 0.551,-0.399 0.3,-0.141 0.59,-0.17 0.859,-0.08 l 2.461,0.739 c 0.569,0.181 1.109,0.12 1.619,-0.159 0.5,-0.29 0.85,-0.71 1.01,-1.25 0.17,-0.57 0.15,-1.011 -0.069,-1.29 -0.22,-0.28 -0.511,-0.46 -0.86,-0.58 l -0.029,-0.01 -0.041,-0.011 -0.049,-0.01 -0.041,-0.02 -0.359,-0.101 -0.49,1.55 c -0.1,0.37 -0.33,0.66 -0.65,0.881 -0.33,0.22 -0.81,0.229 -1.41,0.05 l -0.109,-0.04 -0.189,-0.05 c -0.461,-0.15 -0.811,-0.421 -1.041,-0.811 -0.229,-0.399 -0.289,-0.83 -0.149,-1.28 0.149,-0.489 0.34,-0.84 0.6,-1.02 0.25,-0.19 0.431,-0.28 0.57,-0.28 h 0.149 l 0.431,0.05 0.64,-2.13 z m -4.26,1.27 c -0.381,-0.12 -0.711,-0.11 -0.971,0.02 -0.26,0.13 -0.46,0.42 -0.6,0.86 -0.09,0.33 -0.09,0.67 0.04,1.04 0.11,0.37 0.409,0.63 0.88,0.77 0.3,0.08 0.58,0.08 0.84,-0.01 0.25,-0.11 0.471,-0.33 0.63,-0.69 l 0.5,-1.609 z m 0.06,-0.23 1.31,0.39 0.53,-1.72 -1.31,-0.41 z"
         id="path3602"
         style="fill:#2d3371;fill-opacity:1" /><path
         fill="#2e3191"
         d="m 114.85,143.241 0.11,-0.04 0.101,-0.04 0.18,-0.011 h 0.09 l 0.09,0.021 0.21,0.05 0.229,0.01 c 0.351,0.08 0.641,0.221 0.891,0.391 0.24,0.18 0.42,0.41 0.52,0.68 0.101,0.27 0.15,0.59 0.17,0.97 l -0.02,0.221 -0.01,0.319 -0.04,0.25 -0.03,0.141 c -0.029,0.13 -0.07,0.3 -0.14,0.43 -0.05,0.16 -0.12,0.32 -0.2,0.479 l -0.15,0.28 -0.08,0.11 -0.1,0.16 c -0.141,0.17 -0.311,0.33 -0.55,0.449 -0.66,0.32 -1.33,0.45 -2.03,0.4 l -0.48,-0.05 -0.58,-0.07 -0.549,-0.1 -0.57,-0.12 -0.2,-0.05 -0.08,-0.011 -0.06,-0.02 -0.07,-0.01 -0.27,-0.13 -0.07,-0.021 -0.09,-0.05 -0.16,-0.07 -0.35,-0.17 c -0.4,-0.22 -0.791,-0.54 -1.181,-0.93 -0.38,-0.38 -0.58,-0.88 -0.59,-1.49 -0.011,-0.29 0.01,-0.61 0.04,-0.93 l 0.07,-0.46 0.119,-0.511 0.041,-0.199 0.06,-0.181 0.04,-0.09 0.061,-0.109 0.139,-0.16 c 0.16,-0.261 0.351,-0.45 0.531,-0.601 l 0.209,-0.16 0.2,-0.13 0.181,-0.09 0.149,-0.06 0.2,0.399 -0.1,0.04 -0.121,0.05 -0.199,0.12 -0.21,0.15 c -0.181,0.12 -0.351,0.31 -0.53,0.56 l -0.189,0.381 -0.11,0.279 -0.04,0.16 c -0.21,0.87 -0.21,1.59 0,2.14 0.18,0.4 0.54,0.78 1.09,1.15 0.27,0.16 0.58,0.32 0.93,0.49 l 0.49,0.2 0.42,0.13 c 0.54,0.13 0.891,0.189 1.03,0.189 l 0.25,0.061 c 0.069,0.029 0.13,0.029 0.18,0.01 l 0.101,0.02 c 0.039,0 0.07,0 0.109,0 l 0.15,-0.02 h 0.15 c 0.649,-0.01 1.14,-0.19 1.479,-0.521 0.31,-0.289 0.521,-0.529 0.601,-0.72 l 0.09,-0.229 0.1,-0.17 0.07,-0.28 0.01,-0.061 0.061,-0.25 0.02,-0.109 c 0.02,-0.061 0.01,-0.101 0,-0.16 l 0.02,-0.11 v -0.06 l -0.01,-0.26 c 0,-0.341 -0.109,-0.641 -0.311,-0.92 -0.199,-0.28 -0.529,-0.471 -0.979,-0.58 -0.19,-0.051 -0.351,-0.04 -0.45,0.02 -0.029,0.01 -0.119,0.07 -0.26,0.19 l -0.63,2.56 -0.75,-0.18 1.26,-4.86 -1.71,-0.42 -1.199,4.88 -0.5,-0.12 1.279,-5.17 3.9,0.96 -0.08,0.41 -1.01,-0.37 z"
         id="path3604"
         style="fill:#2d3371;fill-opacity:1" /><path
         fill="#2e3191"
         d="m 119.32,148.031 0.14,-5.44 0.7,0.06 -0.12,5.101 1.91,0.05 0.069,-3.18 c 0.01,-0.601 0.16,-1.08 0.461,-1.4 0.289,-0.35 0.699,-0.53 1.26,-0.5 0.73,0.021 1.289,0.311 1.67,0.86 0.38,0.56 0.55,1.25 0.52,2.06 v 0.061 0.22 0.13 l -0.02,0.09 -0.02,0.19 -0.031,0.13 -0.08,0.28 c -0.1,0.38 -0.289,0.71 -0.569,0.989 -0.29,0.28 -0.67,0.42 -1.13,0.41 z m 4.53,-0.2 0.19,0.01 0.16,-0.03 c 0.079,0 0.149,-0.01 0.2,-0.05 l 0.149,-0.06 c 0.229,-0.07 0.44,-0.271 0.66,-0.61 0.21,-0.33 0.319,-0.81 0.34,-1.43 0.011,-0.61 -0.06,-1.11 -0.229,-1.49 -0.17,-0.36 -0.4,-0.66 -0.66,-0.851 -0.28,-0.21 -0.52,-0.3 -0.77,-0.319 -0.44,-0.01 -0.74,0.16 -0.91,0.49 -0.17,0.34 -0.26,0.729 -0.271,1.17 v 0.109 0.12 0.11 0.04 l -0.069,2.76 z m 0.541,-7.18 0.01,0.19 c -0.01,0.17 -0.08,0.33 -0.2,0.45 -0.101,0.12 -0.31,0.21 -0.591,0.27 h -0.08 -0.039 c -0.17,0 -0.33,-0.06 -0.471,-0.17 -0.189,-0.13 -0.279,-0.25 -0.299,-0.38 l -0.011,-0.27 c 0.011,-0.341 0.13,-0.53 0.351,-0.61 0.229,-0.07 0.39,-0.11 0.479,-0.11 0.181,0.01 0.351,0.061 0.53,0.181 0.151,0.109 0.26,0.249 0.321,0.449 z"
         id="path3606"
         style="fill:#2d3371;fill-opacity:1" /><path
         fill="#2e3191"
         d="m 6,89.641 0.18,-0.05 c 0.12,0.229 0.34,0.43 0.65,0.55 0.23,0.09 0.71,0.17 1.46,0.24 l 6.3,0.65 0.06,0.199 -4.89,4.32 c -0.6,0.52 -0.94,0.86 -1.01,1 -0.09,0.14 -0.11,0.36 -0.05,0.64 L 8.52,97.251 7.38,93.82 7.56,93.77 7.61,93.88 c 0.1,0.31 0.21,0.51 0.32,0.59 0.08,0.06 0.17,0.08 0.27,0.05 0.07,-0.029 0.15,-0.069 0.22,-0.13 0.08,-0.05 0.28,-0.229 0.6,-0.51 L 12.08,91.18 8.44,90.8 C 8,90.76 7.7,90.74 7.55,90.74 7.42,90.75 7.3,90.76 7.2,90.8 c -0.1,0.02 -0.18,0.1 -0.25,0.18 -0.06,0.08 -0.1,0.181 -0.1,0.301 -0.01,0.17 0.01,0.39 0.11,0.63 l -0.19,0.06 z"
         id="path3608"
         style="fill:#2d3371;fill-opacity:1" /><path
         fill="#2e3191"
         d="m 5.52,85.101 3.02,-0.56 -0.02,-0.15 c -0.1,-0.47 -0.3,-0.8 -0.64,-0.96 -0.34,-0.149 -0.8,-0.21 -1.39,-0.16 l -0.03,-0.189 3.88,-0.721 0.03,0.2 c -0.41,0.11 -0.74,0.271 -0.99,0.46 -0.24,0.2 -0.4,0.4 -0.45,0.601 -0.06,0.21 -0.05,0.489 0.02,0.85 l 2.07,-0.39 c 0.42,-0.061 0.65,-0.13 0.75,-0.181 0.08,-0.05 0.14,-0.13 0.18,-0.229 0.05,-0.11 0.05,-0.26 0.01,-0.48 l -0.09,-0.43 c -0.13,-0.7 -0.38,-1.23 -0.78,-1.58 -0.39,-0.36 -0.94,-0.57 -1.62,-0.64 l -0.04,-0.2 2.42,-0.09 1.16,6.399 -0.19,0.04 -0.04,-0.25 c -0.04,-0.21 -0.1,-0.38 -0.22,-0.489 -0.05,-0.091 -0.17,-0.15 -0.3,-0.171 -0.09,-0.02 -0.33,-0.01 -0.71,0.07 l -4.89,0.891 c -0.33,0.06 -0.54,0.1 -0.62,0.149 -0.11,0.061 -0.2,0.13 -0.26,0.25 -0.07,0.15 -0.09,0.351 -0.05,0.59 l 0.05,0.24 -0.18,0.03 -1.14,-6.21 2.19,-0.4 0.02,0.2 c -0.5,0.21 -0.85,0.42 -1.06,0.66 -0.19,0.22 -0.31,0.53 -0.36,0.91 -0.02,0.22 0.01,0.609 0.11,1.18 z"
         id="path3610"
         style="fill:#2d3371;fill-opacity:1" /><path
         fill="#2e3191"
         d="m 8.65,72.021 2.68,0.141 0.32,6.699 h -0.19 l -0.02,-0.25 c 0,-0.21 -0.05,-0.39 -0.14,-0.52 -0.06,-0.1 -0.15,-0.16 -0.28,-0.21 -0.09,-0.03 -0.33,-0.04 -0.7,-0.021 L 5.36,78.1 c -0.4,0.021 -0.65,0.061 -0.75,0.101 -0.08,0.04 -0.16,0.13 -0.23,0.25 -0.07,0.13 -0.09,0.3 -0.08,0.5 l 0.01,0.25 -0.19,0.02 -0.21,-4.01 0.21,-0.01 0.01,0.319 c 0.01,0.23 0.05,0.4 0.14,0.53 0.07,0.1 0.15,0.17 0.29,0.22 0.09,0.03 0.33,0.04 0.7,0.03 l 4.8,-0.25 c 0.39,-0.01 0.63,-0.04 0.73,-0.1 0.11,-0.04 0.18,-0.131 0.23,-0.261 0.04,-0.1 0.04,-0.319 0.01,-0.67 l -0.02,-0.62 C 10.98,74 10.9,73.67 10.74,73.41 10.59,73.149 10.35,72.93 10.05,72.76 9.73,72.57 9.26,72.41 8.67,72.27 Z"
         id="path3612"
         style="fill:#2d3371;fill-opacity:1" /><path
         fill="#2e3191"
         d="m 9.25,63.781 2.62,0.51 -0.56,6.67 -0.19,-0.021 0.02,-0.25 C 11.17,70.48 11.13,70.31 11.07,70.161 11.02,70.06 10.94,69.98 10.82,69.921 10.73,69.86 10.5,69.82 10.12,69.801 l -4.95,-0.41 c -0.39,-0.02 -0.62,-0.02 -0.73,0 -0.1,0.04 -0.2,0.12 -0.29,0.23 C 4.07,69.741 4.02,69.9 4,70.11 l -0.03,0.25 -0.18,-0.02 0.33,-4 0.18,0.02 -0.01,0.33 c -0.02,0.21 0.01,0.4 0.07,0.54 0.04,0.101 0.12,0.181 0.24,0.25 0.1,0.04 0.33,0.09 0.7,0.12 l 4.79,0.4 c 0.39,0.03 0.63,0.03 0.74,-0.01 0.11,-0.03 0.2,-0.11 0.25,-0.24 0.05,-0.101 0.09,-0.32 0.11,-0.66 l 0.05,-0.63 C 11.27,66.069 11.23,65.72 11.11,65.45 10.99,65.179 10.79,64.92 10.5,64.71 10.21,64.49 9.77,64.27 9.19,64.05 Z"
         id="path3614"
         style="fill:#2d3371;fill-opacity:1" /><path
         fill="#2e3191"
         d="m 5.45,57.351 c 0.23,-1.18 0.79,-2.06 1.67,-2.609 0.89,-0.57 1.89,-0.73 2.99,-0.48 0.93,0.21 1.69,0.68 2.27,1.39 0.77,0.931 1,2.07 0.7,3.381 -0.29,1.319 -0.98,2.239 -2.05,2.76 -0.84,0.41 -1.74,0.5 -2.72,0.279 C 7.22,61.812 6.39,61.232 5.84,60.333 5.29,59.421 5.16,58.431 5.45,57.351 Z m 0.35,0.01 c -0.15,0.681 0.07,1.261 0.69,1.771 0.49,0.41 1.27,0.74 2.32,0.979 1.26,0.29 2.23,0.28 2.94,-0.02 0.48,-0.21 0.79,-0.59 0.92,-1.14 0.09,-0.37 0.06,-0.7 -0.06,-1 -0.15,-0.37 -0.47,-0.7 -0.93,-0.99 -0.47,-0.3 -1.12,-0.54 -1.93,-0.73 -0.98,-0.229 -1.72,-0.3 -2.25,-0.229 -0.52,0.069 -0.92,0.22 -1.17,0.45 -0.28,0.249 -0.45,0.539 -0.53,0.909 z"
         id="path3616"
         style="fill:#2d3371;fill-opacity:1" /><path
         fill="#2e3191"
         d="m 11.92,50.361 1.99,0.79 c 0.38,0.141 0.62,0.21 0.74,0.21 0.12,-0.02 0.21,-0.069 0.33,-0.159 0.1,-0.101 0.22,-0.311 0.35,-0.641 l 0.18,0.08 -1.42,3.601 -0.18,-0.07 c 0.12,-0.32 0.19,-0.561 0.17,-0.7 -0.02,-0.15 -0.06,-0.26 -0.14,-0.35 -0.07,-0.08 -0.3,-0.2 -0.69,-0.351 l -4.58,-1.8 c -0.38,-0.15 -0.62,-0.22 -0.75,-0.22 -0.1,0.02 -0.23,0.069 -0.32,0.17 -0.11,0.09 -0.23,0.3 -0.36,0.63 l -0.18,-0.07 1.28,-3.27 c 0.35,-0.851 0.64,-1.44 0.92,-1.78 0.27,-0.35 0.61,-0.58 1.03,-0.71 0.41,-0.13 0.83,-0.1 1.25,0.07 0.52,0.2 0.86,0.55 1.06,1.06 0.13,0.32 0.15,0.72 0.1,1.19 l 3.02,-0.75 c 0.41,-0.09 0.65,-0.181 0.76,-0.24 0.16,-0.1 0.29,-0.24 0.37,-0.42 l 0.21,0.08 -0.87,2.2 -4.09,1.01 z m -3.42,-1.35 3.02,1.2 0.12,-0.3 c 0.2,-0.48 0.28,-0.86 0.3,-1.12 0,-0.29 -0.07,-0.53 -0.25,-0.76 -0.18,-0.23 -0.44,-0.41 -0.81,-0.561 C 10.35,47.26 9.91,47.23 9.56,47.39 9.21,47.54 8.92,47.9 8.71,48.46 Z"
         id="path3618"
         style="fill:#2d3371;fill-opacity:1" /><path
         fill="#2e3191"
         d="m 12.5,40.341 2.67,1.5 0.09,-0.13 c 0.23,-0.42 0.28,-0.811 0.11,-1.15 -0.15,-0.33 -0.47,-0.67 -0.95,-1.01 l 0.09,-0.17 3.45,1.939 -0.11,0.181 c -0.4,-0.181 -0.74,-0.26 -1.05,-0.28 -0.32,0 -0.56,0.05 -0.74,0.17 -0.17,0.12 -0.35,0.34 -0.53,0.65 l 1.85,1.04 c 0.35,0.2 0.59,0.31 0.69,0.33 0.1,0.01 0.19,0 0.28,-0.061 0.11,-0.05 0.21,-0.18 0.31,-0.359 L 18.89,42.6 c 0.34,-0.609 0.47,-1.18 0.4,-1.71 -0.08,-0.53 -0.36,-1.04 -0.85,-1.53 l 0.1,-0.18 1.93,1.47 -3.21,5.681 -0.16,-0.09 0.11,-0.221 c 0.11,-0.189 0.16,-0.359 0.16,-0.51 0,-0.1 -0.04,-0.22 -0.13,-0.33 C 17.19,45.11 17,44.97 16.65,44.781 l -4.33,-2.44 c -0.29,-0.16 -0.48,-0.25 -0.56,-0.271 -0.13,-0.039 -0.26,-0.029 -0.37,0.03 -0.16,0.07 -0.29,0.2 -0.42,0.42 l -0.12,0.21 -0.17,-0.09 3.11,-5.5 1.92,1.09 -0.09,0.16 c -0.53,-0.16 -0.94,-0.22 -1.24,-0.16 -0.3,0.051 -0.58,0.21 -0.85,0.471 -0.17,0.149 -0.39,0.479 -0.67,0.979 z"
         id="path3620"
         style="fill:#2d3371;fill-opacity:1" /><path
         fill="#2e3191"
         d="m 25.51,33.581 0.16,0.13 -2.47,3.07 -0.15,-0.12 0.16,-0.2 c 0.13,-0.16 0.22,-0.33 0.24,-0.48 0.01,-0.1 -0.01,-0.22 -0.07,-0.34 -0.04,-0.09 -0.23,-0.26 -0.52,-0.5 l -3.88,-3.1 c -0.3,-0.24 -0.51,-0.38 -0.6,-0.42 -0.11,-0.021 -0.22,-0.021 -0.35,0.04 -0.14,0.05 -0.27,0.159 -0.4,0.319 l -0.16,0.2 -0.14,-0.12 2.45,-3.069 0.16,0.119 -0.16,0.2 c -0.13,0.17 -0.2,0.32 -0.22,0.48 -0.04,0.1 0,0.22 0.06,0.34 0.04,0.09 0.21,0.25 0.51,0.49 l 3.88,3.109 c 0.31,0.24 0.51,0.38 0.62,0.4 0.1,0.03 0.21,0.02 0.35,-0.03 0.12,-0.05 0.26,-0.16 0.39,-0.319 z"
         id="path3622"
         style="fill:#2d3371;fill-opacity:1" /><path
         fill="#2e3191"
         d="m 22.67,25.811 5.92,0.67 -2.27,-2.279 c -0.32,-0.32 -0.59,-0.49 -0.79,-0.521 -0.28,-0.02 -0.56,0.11 -0.86,0.42 l -0.14,-0.13 1.76,-1.75 0.13,0.13 c -0.19,0.25 -0.31,0.44 -0.34,0.561 -0.02,0.13 -0.02,0.26 0.05,0.399 0.06,0.15 0.22,0.351 0.47,0.601 l 4.45,4.46 -0.14,0.13 -8.03,-0.851 3.39,3.42 c 0.31,0.301 0.57,0.44 0.83,0.4 0.25,-0.04 0.46,-0.14 0.65,-0.33 l 0.13,-0.14 0.14,0.13 -1.91,1.91 -0.15,-0.141 c 0.29,-0.3 0.44,-0.56 0.44,-0.8 0,-0.229 -0.14,-0.479 -0.42,-0.76 L 22.23,27.569 21.94,27.54 c -0.26,-0.04 -0.45,-0.03 -0.59,0 -0.13,0.05 -0.28,0.14 -0.45,0.29 l -0.13,-0.141 z"
         id="path3624"
         style="fill:#2d3371;fill-opacity:1" /><path
         fill="#2e3191"
         d="m 31.64,17.791 1.58,1.97 -0.17,0.13 c -0.48,-0.43 -1,-0.67 -1.57,-0.71 -0.57,-0.06 -1.05,0.08 -1.45,0.38 -0.29,0.23 -0.48,0.5 -0.52,0.78 -0.06,0.31 0,0.56 0.16,0.76 0.1,0.13 0.23,0.23 0.36,0.28 0.19,0.07 0.44,0.11 0.73,0.09 0.21,0 0.67,-0.08 1.35,-0.22 0.97,-0.19 1.69,-0.24 2.17,-0.12 0.48,0.13 0.86,0.37 1.17,0.78 0.37,0.5 0.52,1.08 0.4,1.729 -0.11,0.67 -0.47,1.22 -1.08,1.69 -0.2,0.149 -0.39,0.27 -0.59,0.359 -0.19,0.091 -0.47,0.181 -0.8,0.28 -0.19,0.05 -0.32,0.11 -0.42,0.18 -0.08,0.061 -0.14,0.16 -0.18,0.28 -0.04,0.12 -0.04,0.271 0,0.44 l -0.15,0.12 -1.75,-2.261 0.15,-0.12 c 0.62,0.54 1.25,0.83 1.88,0.87 0.62,0.04 1.16,-0.1 1.59,-0.42 0.34,-0.26 0.53,-0.56 0.59,-0.89 0.06,-0.33 0,-0.61 -0.18,-0.851 -0.1,-0.14 -0.25,-0.239 -0.42,-0.319 -0.18,-0.08 -0.39,-0.12 -0.64,-0.12 -0.24,0 -0.64,0.06 -1.17,0.16 -0.76,0.149 -1.32,0.22 -1.69,0.22 -0.4,0 -0.75,-0.07 -1.03,-0.2 -0.31,-0.13 -0.58,-0.35 -0.79,-0.63 -0.37,-0.47 -0.5,-1.01 -0.41,-1.62 0.08,-0.609 0.41,-1.12 0.95,-1.54 0.19,-0.149 0.39,-0.27 0.62,-0.37 0.17,-0.069 0.39,-0.14 0.67,-0.199 0.27,-0.061 0.44,-0.12 0.52,-0.181 0.08,-0.06 0.12,-0.13 0.13,-0.21 0.01,-0.09 -0.03,-0.229 -0.13,-0.439 z"
         id="path3626"
         style="fill:#2d3371;fill-opacity:1" /><path
         fill="#2e3191"
         d="m 39.71,12.951 1.04,1.75 -0.16,0.1 c -0.36,-0.35 -0.63,-0.56 -0.86,-0.67 -0.23,-0.11 -0.48,-0.14 -0.75,-0.12 -0.17,0.01 -0.39,0.12 -0.7,0.29 l -0.49,0.29 2.97,5.01 c 0.19,0.33 0.34,0.54 0.42,0.59 0.09,0.061 0.19,0.091 0.34,0.091 0.14,0 0.3,-0.04 0.48,-0.15 l 0.22,-0.13 0.1,0.16 -3.39,2 -0.09,-0.16 0.21,-0.13 c 0.2,-0.101 0.32,-0.23 0.4,-0.37 0.05,-0.09 0.07,-0.21 0.05,-0.34 -0.01,-0.091 -0.11,-0.311 -0.31,-0.641 l -2.96,-5 -0.48,0.29 c -0.44,0.25 -0.71,0.53 -0.81,0.83 -0.11,0.43 -0.07,0.9 0.12,1.43 l -0.15,0.101 -1.04,-1.75 z"
         id="path3628"
         style="fill:#2d3371;fill-opacity:1" /><path
         fill="#2e3191"
         d="m 47.95,17.251 0.08,0.18 -3.58,1.63 -0.08,-0.18 0.23,-0.1 c 0.19,-0.091 0.34,-0.2 0.43,-0.33 0.05,-0.08 0.09,-0.19 0.09,-0.33 0,-0.101 -0.09,-0.32 -0.24,-0.67 L 42.81,12.93 c -0.16,-0.35 -0.26,-0.57 -0.34,-0.64 -0.08,-0.07 -0.19,-0.11 -0.33,-0.12 -0.14,-0.03 -0.3,0.01 -0.5,0.1 l -0.23,0.11 -0.08,-0.18 3.57,-1.641 0.09,0.181 -0.23,0.1 c -0.2,0.09 -0.34,0.2 -0.43,0.33 -0.07,0.09 -0.1,0.189 -0.1,0.34 0,0.1 0.08,0.32 0.24,0.67 l 2.07,4.521 c 0.16,0.35 0.26,0.569 0.35,0.63 0.09,0.069 0.2,0.109 0.35,0.14 0.13,0.01 0.3,-0.02 0.5,-0.11 z"
         id="path3630"
         style="fill:#2d3371;fill-opacity:1" /><path
         fill="#2e3191"
         d="m 53.04,7.681 0.65,1.95 -0.19,0.06 C 53.24,9.292 53.01,9.002 52.81,8.851 52.61,8.702 52.37,8.611 52.1,8.561 51.94,8.551 51.7,8.591 51.36,8.702 l -0.53,0.18 1.82,5.53 c 0.12,0.37 0.22,0.59 0.29,0.67 0.07,0.08 0.18,0.13 0.32,0.17 0.14,0.02 0.31,0.01 0.5,-0.061 l 0.23,-0.08 0.07,0.181 -3.74,1.229 -0.06,-0.18 0.24,-0.08 c 0.2,-0.07 0.36,-0.16 0.46,-0.27 0.07,-0.08 0.1,-0.2 0.13,-0.33 0.01,-0.091 -0.05,-0.33 -0.17,-0.69 l -1.82,-5.52 -0.54,0.18 c -0.47,0.15 -0.81,0.37 -0.96,0.65 -0.21,0.38 -0.27,0.85 -0.18,1.399 l -0.19,0.061 -0.63,-1.93 z"
         id="path3632"
         style="fill:#2d3371;fill-opacity:1" /><path
         fill="#2e3191"
         d="m 55,7.161 3.83,-0.7 0.03,0.189 -0.19,0.03 c -0.28,0.061 -0.48,0.12 -0.58,0.2 -0.1,0.09 -0.16,0.189 -0.18,0.3 -0.02,0.12 0,0.38 0.08,0.811 l 0.67,3.64 c 0.12,0.66 0.25,1.09 0.38,1.3 0.15,0.19 0.34,0.351 0.59,0.44 0.25,0.1 0.55,0.12 0.89,0.06 0.4,-0.07 0.71,-0.229 0.96,-0.46 0.25,-0.229 0.41,-0.52 0.49,-0.86 0.08,-0.35 0.04,-0.909 -0.09,-1.71 L 61.33,7.381 C 61.27,7.041 61.19,6.811 61.1,6.681 61,6.551 60.9,6.471 60.79,6.421 60.62,6.36 60.37,6.36 60.08,6.421 l -0.03,-0.2 2.58,-0.46 0.03,0.19 -0.15,0.029 c -0.21,0.04 -0.38,0.11 -0.5,0.221 -0.11,0.109 -0.2,0.25 -0.23,0.439 -0.03,0.12 0,0.34 0.05,0.65 l 0.51,2.819 c 0.16,0.87 0.21,1.511 0.18,1.921 -0.05,0.409 -0.27,0.81 -0.64,1.21 -0.38,0.409 -0.96,0.68 -1.72,0.829 -0.65,0.11 -1.16,0.12 -1.54,0.011 -0.52,-0.15 -0.9,-0.391 -1.17,-0.71 -0.26,-0.33 -0.46,-0.801 -0.57,-1.42 L 56.22,8.319 C 56.14,7.881 56.07,7.621 56,7.531 55.94,7.43 55.83,7.36 55.71,7.32 55.58,7.281 55.35,7.3 55.04,7.36 Z"
         id="path3634"
         style="fill:#2d3371;fill-opacity:1" /><path
         fill="#2e3191"
         d="m 71.311,5.291 0.09,2.05 h -0.19 c -0.14,-0.47 -0.29,-0.79 -0.431,-0.99 -0.149,-0.2 -0.369,-0.35 -0.619,-0.47 -0.15,-0.05 -0.39,-0.08 -0.74,-0.061 l -0.58,0.021 0.26,5.81 c 0.02,0.391 0.06,0.641 0.1,0.73 0.05,0.09 0.14,0.18 0.26,0.24 0.12,0.069 0.3,0.1 0.5,0.08 l 0.25,-0.011 0.01,0.2 -3.94,0.18 -0.01,-0.199 0.26,-0.011 c 0.22,-0.01 0.39,-0.069 0.51,-0.149 0.1,-0.061 0.16,-0.15 0.21,-0.28 0.03,-0.1 0.05,-0.33 0.03,-0.71 l -0.25,-5.81 -0.56,0.02 c -0.51,0.021 -0.88,0.15 -1.11,0.37 -0.3,0.31 -0.48,0.75 -0.55,1.31 h -0.2 l -0.09,-2.029 z"
         id="path3636"
         style="fill:#2d3371;fill-opacity:1" /><path
         fill="#2e3191"
         d="m 76.07,6.021 -0.27,3.05 0.15,0.011 c 0.489,0.04 0.85,-0.08 1.09,-0.36 0.239,-0.27 0.41,-0.71 0.53,-1.29 l 0.189,0.021 -0.33,3.93 -0.209,-0.021 C 77.209,10.932 77.15,10.572 77.029,10.293 76.91,10.013 76.75,9.813 76.57,9.703 76.39,9.593 76.12,9.522 75.759,9.493 l -0.189,2.1 c -0.03,0.42 -0.041,0.67 -0.01,0.77 0.039,0.091 0.09,0.171 0.18,0.24 0.09,0.07 0.24,0.11 0.449,0.13 l 0.44,0.051 c 0.71,0.05 1.28,-0.061 1.74,-0.341 0.44,-0.29 0.8,-0.75 1.04,-1.399 l 0.199,0.02 -0.539,2.351 -6.5,-0.57 0.02,-0.19 0.24,0.021 c 0.21,0.02 0.4,0 0.529,-0.07 0.101,-0.05 0.181,-0.13 0.24,-0.26 0.061,-0.09 0.09,-0.32 0.12,-0.7 l 0.44,-4.95 c 0.04,-0.35 0.04,-0.55 0.04,-0.63 -0.021,-0.13 -0.091,-0.229 -0.181,-0.31 -0.129,-0.13 -0.319,-0.181 -0.55,-0.21 l -0.25,-0.03 0.021,-0.19 6.279,0.551 -0.199,2.21 -0.19,-0.021 c -0.06,-0.54 -0.18,-0.939 -0.351,-1.189 -0.159,-0.25 -0.43,-0.45 -0.779,-0.58 -0.2,-0.09 -0.58,-0.16 -1.16,-0.21 z"
         id="path3638"
         style="fill:#2d3371;fill-opacity:1" /><path
         fill="#2e3191"
         d="m 89.84,7.981 c 1.17,0.301 2,0.9 2.51,1.84 0.51,0.931 0.61,1.931 0.301,3.011 -0.28,0.93 -0.78,1.64 -1.521,2.18 -0.979,0.71 -2.13,0.88 -3.43,0.51 -1.3,-0.39 -2.171,-1.13 -2.61,-2.22 -0.38,-0.85 -0.4,-1.77 -0.119,-2.73 C 85.29,9.503 85.92,8.713 86.87,8.213 87.79,7.701 88.8,7.621 89.84,7.981 Z m -0.04,0.36 c -0.649,-0.19 -1.26,0 -1.8,0.58 -0.439,0.479 -0.82,1.229 -1.13,2.27 -0.37,1.24 -0.41,2.21 -0.149,2.931 0.17,0.5 0.539,0.84 1.079,0.989 0.36,0.101 0.69,0.11 1,0.011 0.37,-0.141 0.729,-0.431 1.04,-0.891 0.33,-0.449 0.6,-1.069 0.84,-1.88 0.291,-0.95 0.42,-1.7 0.381,-2.229 C 91.02,9.592 90.891,9.202 90.67,8.912 90.46,8.641 90.17,8.451 89.8,8.341 Z"
         id="path3640"
         style="fill:#2d3371;fill-opacity:1" /><path
         fill="#2e3191"
         d="m 98.02,11.591 -1.279,2.83 0.21,0.09 c 0.3,0.14 0.56,0.2 0.79,0.2 0.23,-0.01 0.46,-0.08 0.699,-0.24 0.23,-0.15 0.451,-0.41 0.65,-0.76 l 0.189,0.08 -1.579,3.47 -0.171,-0.08 c 0.24,-0.689 0.271,-1.21 0.07,-1.54 -0.18,-0.35 -0.449,-0.59 -0.8,-0.76 l -0.22,-0.09 -0.96,2.109 c -0.149,0.36 -0.229,0.57 -0.24,0.681 0,0.1 0.04,0.22 0.12,0.34 0.08,0.12 0.21,0.22 0.41,0.3 l 0.22,0.1 -0.08,0.181 -3.579,-1.61 0.079,-0.18 0.229,0.1 c 0.201,0.09 0.371,0.12 0.531,0.11 0.119,-0.01 0.209,-0.061 0.31,-0.15 0.09,-0.069 0.19,-0.27 0.351,-0.62 l 2.049,-4.529 c 0.17,-0.351 0.25,-0.59 0.25,-0.69 0,-0.1 -0.029,-0.22 -0.109,-0.34 -0.09,-0.11 -0.23,-0.21 -0.42,-0.3 l -0.211,-0.101 0.08,-0.18 5.791,2.63 -0.881,1.97 -0.22,-0.09 c 0.171,-0.489 0.19,-0.88 0.12,-1.189 -0.109,-0.311 -0.32,-0.59 -0.64,-0.86 -0.181,-0.14 -0.54,-0.33 -1.091,-0.59 z"
         id="path3642"
         style="fill:#2d3371;fill-opacity:1" /><path
         fill="#2e3191"
         d="m 111.41,18.921 -1.16,1.689 -0.15,-0.109 c 0.16,-0.46 0.24,-0.811 0.24,-1.061 0,-0.25 -0.08,-0.489 -0.22,-0.739 -0.07,-0.131 -0.261,-0.301 -0.54,-0.49 l -0.471,-0.32 -3.279,4.8 c -0.21,0.32 -0.33,0.521 -0.359,0.641 -0.011,0.109 0,0.229 0.069,0.35 0.04,0.14 0.17,0.26 0.351,0.37 l 0.199,0.14 -0.109,0.16 -3.25,-2.21 0.119,-0.16 0.211,0.141 c 0.17,0.12 0.34,0.189 0.489,0.189 0.12,0.01 0.22,-0.02 0.351,-0.1 0.09,-0.04 0.22,-0.23 0.449,-0.54 l 3.271,-4.8 -0.47,-0.33 c -0.431,-0.28 -0.78,-0.4 -1.09,-0.351 -0.451,0.07 -0.851,0.301 -1.23,0.71 l -0.15,-0.109 1.131,-1.69 z"
         id="path3644"
         style="fill:#2d3371;fill-opacity:1" /><path
         fill="#2e3191"
         d="m 114.79,22.351 -2.06,2.29 0.119,0.101 c 0.371,0.329 0.711,0.449 1.08,0.369 0.36,-0.069 0.76,-0.319 1.2,-0.72 l 0.149,0.141 -2.649,2.939 -0.14,-0.13 c 0.25,-0.35 0.42,-0.67 0.49,-0.97 0.08,-0.301 0.069,-0.551 0,-0.74 -0.08,-0.21 -0.25,-0.42 -0.541,-0.67 l -1.41,1.58 c -0.279,0.31 -0.43,0.5 -0.469,0.59 -0.031,0.11 -0.031,0.189 0,0.31 0.029,0.101 0.129,0.24 0.289,0.37 l 0.33,0.3 c 0.51,0.471 1.051,0.721 1.59,0.761 0.53,0.05 1.09,-0.13 1.67,-0.5 l 0.15,0.149 -1.859,1.561 -4.851,-4.351 0.14,-0.149 0.181,0.17 c 0.149,0.149 0.31,0.229 0.46,0.27 0.119,0.021 0.23,0.011 0.359,-0.06 0.08,-0.04 0.26,-0.2 0.521,-0.49 l 3.319,-3.689 c 0.24,-0.261 0.361,-0.421 0.41,-0.5 0.051,-0.12 0.061,-0.24 0.041,-0.36 -0.031,-0.18 -0.141,-0.33 -0.32,-0.5 l -0.2,-0.17 0.13,-0.15 4.71,4.22 -1.489,1.65 -0.14,-0.132 c 0.279,-0.48 0.42,-0.87 0.439,-1.17 0.011,-0.3 -0.09,-0.63 -0.27,-0.95 -0.12,-0.189 -0.391,-0.47 -0.82,-0.85 z"
         id="path3646"
         style="fill:#2d3371;fill-opacity:1" /><path
         fill="#2e3191"
         d="m 124.41,31.641 -1.99,1.69 -0.13,-0.15 c 0.41,-0.56 0.62,-1.14 0.61,-1.71 -0.01,-0.57 -0.2,-1.07 -0.551,-1.51 -0.32,-0.36 -0.699,-0.601 -1.17,-0.73 -0.449,-0.109 -0.92,-0.109 -1.369,0.04 -0.561,0.19 -1.121,0.5 -1.65,0.94 -0.52,0.439 -0.93,0.899 -1.24,1.39 -0.311,0.48 -0.46,0.96 -0.439,1.42 0.02,0.46 0.209,0.91 0.58,1.34 0.31,0.37 0.67,0.631 1.08,0.79 0.42,0.17 0.959,0.261 1.619,0.261 l -0.5,0.42 c -0.619,-0.03 -1.13,-0.16 -1.59,-0.391 -0.439,-0.21 -0.859,-0.55 -1.26,-1.02 -0.52,-0.61 -0.86,-1.271 -1.01,-1.96 -0.16,-0.681 -0.121,-1.351 0.129,-2 0.24,-0.65 0.621,-1.19 1.141,-1.641 0.561,-0.47 1.189,-0.76 1.93,-0.89 0.73,-0.13 1.44,-0.07 2.131,0.2 0.68,0.25 1.26,0.66 1.729,1.21 0.34,0.4 0.62,0.9 0.819,1.5 0.131,0.35 0.201,0.56 0.261,0.63 0.069,0.1 0.19,0.14 0.29,0.15 0.13,0.01 0.27,-0.04 0.43,-0.13 z"
         id="path3648"
         style="fill:#2d3371;fill-opacity:1" /><path
         fill="#2e3191"
         d="m 123.84,38.061 -2,1.24 c -0.32,0.2 -0.52,0.34 -0.57,0.43 -0.06,0.08 -0.09,0.21 -0.09,0.34 0,0.15 0.061,0.311 0.17,0.48 l 0.141,0.22 -0.17,0.11 -2.08,-3.35 0.18,-0.101 0.13,0.21 c 0.11,0.19 0.25,0.311 0.38,0.391 0.09,0.06 0.221,0.069 0.34,0.039 0.09,-0.01 0.311,-0.119 0.631,-0.319 l 4.22,-2.62 c 0.33,-0.2 0.53,-0.35 0.59,-0.43 0.069,-0.08 0.09,-0.2 0.09,-0.351 -0.01,-0.13 -0.06,-0.31 -0.18,-0.479 l -0.14,-0.21 0.17,-0.101 2.06,3.33 -0.149,0.11 -0.141,-0.21 c -0.109,-0.19 -0.25,-0.3 -0.38,-0.38 -0.08,-0.051 -0.21,-0.07 -0.33,-0.051 -0.101,0.011 -0.31,0.131 -0.64,0.32 l -1.801,1.13 1.391,2.24 1.82,-1.12 c 0.319,-0.21 0.529,-0.35 0.58,-0.43 0.06,-0.09 0.08,-0.2 0.08,-0.351 -0.011,-0.14 -0.061,-0.3 -0.17,-0.479 l -0.131,-0.21 0.17,-0.101 2.07,3.341 -0.16,0.1 -0.12,-0.2 c -0.13,-0.189 -0.25,-0.319 -0.38,-0.38 -0.109,-0.07 -0.21,-0.07 -0.35,-0.05 -0.101,0 -0.32,0.12 -0.631,0.31 l -4.22,2.62 c -0.34,0.21 -0.54,0.351 -0.6,0.44 -0.07,0.09 -0.091,0.2 -0.08,0.35 0,0.15 0.05,0.3 0.16,0.48 l 0.13,0.21 -0.17,0.1 -2.07,-3.34 0.16,-0.1 0.12,0.21 c 0.12,0.189 0.25,0.319 0.39,0.38 0.1,0.06 0.211,0.069 0.35,0.05 0.091,0 0.301,-0.11 0.631,-0.32 l 1.98,-1.229 z"
         id="path3650"
         style="fill:#2d3371;fill-opacity:1" /><path
         fill="#2e3191"
         d="m 131.92,44.721 -2.779,5.26 2.949,-1.279 c 0.41,-0.181 0.67,-0.351 0.76,-0.54 0.131,-0.25 0.11,-0.57 -0.07,-0.95 l 0.181,-0.08 0.979,2.28 -0.18,0.08 c -0.16,-0.28 -0.3,-0.45 -0.4,-0.53 -0.1,-0.07 -0.229,-0.101 -0.409,-0.101 -0.15,0 -0.4,0.07 -0.72,0.221 l -5.771,2.489 -0.08,-0.17 3.75,-7.17 -4.43,1.91 c -0.39,0.17 -0.61,0.37 -0.681,0.62 -0.05,0.24 -0.02,0.48 0.07,0.73 l 0.07,0.159 -0.16,0.07 -1.08,-2.47 0.18,-0.08 c 0.16,0.38 0.36,0.61 0.57,0.7 0.21,0.08 0.5,0.04 0.87,-0.11 l 4.88,-2.09 0.13,-0.26 c 0.12,-0.23 0.2,-0.41 0.21,-0.551 0.01,-0.14 -0.02,-0.31 -0.1,-0.529 l 0.17,-0.08 z"
         id="path3652"
         style="fill:#2d3371;fill-opacity:1" /><path
         fill="#2e3191"
         d="m 135.76,55.191 c 0.33,1.15 0.24,2.17 -0.27,3.091 -0.54,0.92 -1.34,1.52 -2.42,1.8 -0.93,0.25 -1.82,0.189 -2.67,-0.16 -1.121,-0.47 -1.84,-1.36 -2.19,-2.67 -0.34,-1.311 -0.16,-2.44 0.53,-3.391 0.56,-0.76 1.32,-1.26 2.279,-1.51 1.08,-0.29 2.08,-0.149 3,0.38 0.92,0.55 1.491,1.37 1.741,2.46 z m -0.33,0.14 c -0.17,-0.67 -0.65,-1.07 -1.42,-1.24 -0.64,-0.14 -1.48,-0.06 -2.52,0.21 -1.25,0.33 -2.11,0.79 -2.58,1.38 -0.35,0.42 -0.45,0.89 -0.301,1.44 0.11,0.37 0.281,0.649 0.531,0.859 0.31,0.24 0.739,0.4 1.279,0.45 0.55,0.04 1.24,-0.05 2.061,-0.26 0.959,-0.25 1.66,-0.54 2.08,-0.851 0.449,-0.3 0.709,-0.619 0.84,-0.939 0.11,-0.329 0.129,-0.679 0.03,-1.049 z"
         id="path3654"
         style="fill:#2d3371;fill-opacity:1" /><path
         fill="#2e3191"
         d="m 132.971,68.621 -2.681,0.02 -0.76,-6.649 0.2,-0.03 0.02,0.26 c 0.04,0.21 0.09,0.38 0.189,0.51 0.061,0.08 0.16,0.15 0.281,0.181 0.1,0.029 0.329,0.029 0.719,-0.021 l 4.931,-0.56 c 0.39,-0.051 0.63,-0.101 0.72,-0.15 0.09,-0.049 0.17,-0.14 0.23,-0.27 0.05,-0.131 0.06,-0.301 0.039,-0.511 l -0.029,-0.25 0.189,-0.02 0.451,3.99 -0.191,0.02 -0.029,-0.33 c -0.029,-0.22 -0.09,-0.39 -0.18,-0.51 -0.07,-0.1 -0.17,-0.16 -0.301,-0.2 -0.09,-0.03 -0.33,-0.02 -0.699,0.021 l -4.79,0.56 c -0.38,0.04 -0.62,0.09 -0.73,0.14 -0.1,0.061 -0.17,0.15 -0.21,0.28 -0.02,0.101 -0.01,0.33 0.02,0.68 l 0.08,0.62 c 0.051,0.4 0.15,0.721 0.33,0.971 0.17,0.239 0.41,0.46 0.74,0.609 0.32,0.16 0.801,0.29 1.41,0.38 z"
         id="path3656"
         style="fill:#2d3371;fill-opacity:1" /><path
         fill="#2e3191"
         d="m 137.95,74.231 c 0.01,1.2 -0.37,2.17 -1.13,2.9 -0.771,0.729 -1.711,1.08 -2.83,1.05 -0.95,-0.03 -1.801,-0.33 -2.49,-0.92 -0.95,-0.76 -1.4,-1.82 -1.359,-3.18 0.029,-1.36 0.52,-2.391 1.459,-3.101 0.74,-0.569 1.61,-0.83 2.61,-0.81 1.11,0.04 2.05,0.45 2.76,1.22 0.73,0.781 1.05,1.741 0.98,2.841 z m -0.35,0.06 c 0.01,-0.69 -0.33,-1.221 -1.02,-1.601 -0.58,-0.31 -1.4,-0.479 -2.471,-0.51 -1.299,-0.04 -2.25,0.16 -2.879,0.601 -0.44,0.289 -0.66,0.729 -0.681,1.289 0,0.381 0.07,0.7 0.25,0.961 0.22,0.34 0.601,0.6 1.12,0.789 0.52,0.2 1.2,0.311 2.03,0.33 0.979,0.03 1.75,-0.04 2.239,-0.21 0.5,-0.17 0.851,-0.399 1.07,-0.67 0.213,-0.279 0.322,-0.609 0.342,-0.979 z"
         id="path3658"
         style="fill:#2d3371;fill-opacity:1" /><path
         fill="#2e3191"
         d="m 136.33,87.881 -2.62,-0.47 0.04,-0.2 c 0.77,-0.101 1.391,-0.38 1.84,-0.811 0.46,-0.42 0.74,-0.909 0.86,-1.5 0.11,-0.55 0.04,-1.05 -0.22,-1.47 -0.24,-0.43 -0.631,-0.76 -1.15,-1.03 -0.54,-0.25 -1.109,-0.43 -1.689,-0.54 -0.721,-0.13 -1.351,-0.159 -1.92,-0.1 -0.561,0.07 -1.011,0.28 -1.33,0.6 -0.33,0.311 -0.541,0.74 -0.631,1.25 -0.029,0.181 -0.05,0.37 -0.05,0.57 0.01,0.18 0.03,0.38 0.06,0.601 l 1.551,0.279 c 0.289,0.061 0.49,0.061 0.58,0.04 0.109,-0.02 0.199,-0.09 0.289,-0.2 0.09,-0.119 0.15,-0.25 0.201,-0.43 l 0.02,-0.2 0.199,0.03 -0.659,3.61 -0.2,-0.04 c 0.029,-0.271 0.029,-0.471 0,-0.58 -0.04,-0.12 -0.13,-0.221 -0.24,-0.311 -0.07,-0.05 -0.25,-0.08 -0.51,-0.14 l -1.55,-0.29 c -0.12,-0.5 -0.2,-1.03 -0.21,-1.56 -0.021,-0.53 0.029,-1.07 0.13,-1.62 0.13,-0.7 0.33,-1.271 0.6,-1.69 0.29,-0.439 0.61,-0.8 0.99,-1.11 0.37,-0.289 0.78,-0.5 1.21,-0.64 0.551,-0.16 1.141,-0.18 1.76,-0.07 1.11,0.21 1.99,0.771 2.62,1.7 0.63,0.92 0.83,1.98 0.61,3.17 -0.07,0.37 -0.15,0.69 -0.28,0.98 -0.05,0.16 -0.18,0.399 -0.39,0.729 -0.2,0.341 -0.311,0.53 -0.311,0.601 -0.029,0.1 0,0.2 0.051,0.29 0.049,0.109 0.189,0.21 0.379,0.319 z"
         id="path3660"
         style="fill:#2d3371;fill-opacity:1" /><path
         fill="#2e3191"
         d="m 132.971,97.841 -0.181,-0.07 c 0.05,-0.239 0.05,-0.45 -0.021,-0.609 -0.1,-0.221 -0.39,-0.641 -0.92,-1.24 l -2.07,-2.44 -1.719,-0.59 c -0.371,-0.13 -0.601,-0.189 -0.711,-0.189 -0.119,0.02 -0.209,0.06 -0.32,0.149 -0.109,0.09 -0.199,0.23 -0.25,0.41 l -0.139,0.4 -0.19,-0.07 1.38,-3.99 0.189,0.05 -0.14,0.381 c -0.069,0.21 -0.09,0.39 -0.05,0.539 0.01,0.11 0.08,0.211 0.18,0.311 0.07,0.06 0.29,0.16 0.65,0.29 l 1.449,0.49 3.631,-0.63 c 0.72,-0.131 1.16,-0.24 1.31,-0.341 0.15,-0.1 0.271,-0.26 0.351,-0.489 l 0.18,0.069 -1.16,3.42 -0.18,-0.06 0.05,-0.15 c 0.06,-0.21 0.08,-0.37 0.05,-0.47 -0.029,-0.11 -0.08,-0.16 -0.15,-0.18 -0.119,-0.05 -0.5,-0.021 -1.109,0.08 l -2.801,0.489 1.701,2.021 c 0.42,0.51 0.72,0.79 0.899,0.85 0.101,0.04 0.19,0.021 0.29,-0.05 0.12,-0.09 0.25,-0.29 0.391,-0.6 l 0.18,0.05 z"
         id="path3662"
         style="fill:#2d3371;fill-opacity:1" /><g
         id="g3670"
         style="fill:#2d3371;fill-opacity:1">
	<path
   fill="#2e3191"
   d="m 68.554,31.998 v 0.416 c -0.612,0.11 -1.163,0.441 -1.652,1.003 -0.367,0.428 -0.881,1.419 -1.578,2.984 L 59.477,49.442 H 59.049 L 53.214,35.864 c -0.709,-1.652 -1.174,-2.605 -1.407,-2.899 -0.245,-0.282 -0.709,-0.477 -1.37,-0.563 v -0.416 h 8.184 v 0.416 h -0.282 c -0.734,0 -1.235,0.11 -1.504,0.281 -0.196,0.147 -0.294,0.319 -0.294,0.564 0,0.146 0.024,0.342 0.086,0.55 0.073,0.196 0.306,0.758 0.685,1.664 l 3.658,8.502 3.352,-7.561 c 0.416,-0.917 0.661,-1.541 0.758,-1.847 0.098,-0.318 0.135,-0.575 0.135,-0.808 0,-0.257 -0.062,-0.477 -0.196,-0.672 -0.134,-0.196 -0.342,-0.355 -0.599,-0.453 -0.354,-0.146 -0.832,-0.22 -1.419,-0.22 v -0.416 h 5.554 v 0.012 z"
   id="path3664"
   style="fill:#2d3371;fill-opacity:1" />
	<path
   fill="#2e3191"
   d="m 78.278,48.622 v 0.441 h -8.917 v -0.441 h 0.563 c 0.501,0 0.905,-0.073 1.211,-0.257 0.22,-0.122 0.379,-0.33 0.501,-0.624 0.074,-0.208 0.135,-0.733 0.135,-1.615 V 34.921 c 0,-0.892 -0.061,-1.443 -0.135,-1.663 -0.11,-0.221 -0.294,-0.416 -0.575,-0.588 -0.281,-0.159 -0.672,-0.257 -1.149,-0.257 h -0.563 v -0.416 h 8.917 v 0.416 h -0.562 c -0.49,0 -0.894,0.098 -1.176,0.269 -0.231,0.123 -0.392,0.331 -0.525,0.625 -0.098,0.196 -0.146,0.746 -0.146,1.627 v 11.205 c 0,0.894 0.036,1.444 0.146,1.664 0.109,0.22 0.294,0.416 0.588,0.588 0.256,0.183 0.647,0.244 1.125,0.244 z"
   id="path3666"
   style="fill:#2d3371;fill-opacity:1" />
	<path
   fill="#2e3191"
   d="m 95.173,31.998 v 4.6 H 94.734 C 94.463,35.534 94.17,34.776 93.84,34.31 93.51,33.858 93.056,33.478 92.494,33.198 92.188,33.063 91.6,32.989 90.817,32.989 h -1.283 v 13.15 c 0,0.894 0.048,1.444 0.157,1.664 0.087,0.22 0.271,0.416 0.553,0.588 0.28,0.183 0.659,0.244 1.137,0.244 h 0.575 v 0.441 h -8.931 v -0.441 h 0.563 c 0.488,0 0.892,-0.073 1.198,-0.257 0.207,-0.122 0.38,-0.33 0.514,-0.624 0.098,-0.208 0.135,-0.734 0.135,-1.615 v -13.15 h -1.284 c -1.162,0 -2.007,0.245 -2.521,0.723 -0.746,0.685 -1.212,1.639 -1.395,2.886 h -0.429 v -4.6 z"
   id="path3668"
   style="fill:#2d3371;fill-opacity:1" />
</g><path
         fill="#2e3191"
         d="m 88.79,127.131 c 0,0 2.96,-0.3 6.25,0.51 1.979,0.49 4.08,1.36 5.729,2.96 10e-4,0 -6.649,-3.01 -11.979,-3.47 z"
         id="path3672"
         style="fill:#2d3371;fill-opacity:1" /><path
         fill="#2e3191"
         d="m 92.62,126.271 c 0,0 2.29,-0.26 4.84,0.46 1.521,0.44 3.149,1.221 4.42,2.62 0,0.01 -5.13,-2.65 -9.26,-3.08 z"
         id="path3674"
         style="fill:#2d3371;fill-opacity:1" /><path
         fill="#2e3191"
         d="m 95.02,125.271 c 0,0 2.03,-0.229 4.301,0.4 1.369,0.38 2.8,1.09 3.93,2.33 -0.011,0 -4.571,-2.36 -8.231,-2.73 z"
         id="path3676"
         style="fill:#2d3371;fill-opacity:1" /><path
         fill="#2e3191"
         d="m 98.05,124.401 c 0,0 1.63,-0.189 3.45,0.33 1.08,0.311 2.24,0.86 3.17,1.87 -0.01,0 -3.69,-1.89 -6.62,-2.2 z"
         id="path3678"
         style="fill:#2d3371;fill-opacity:1" /><path
         fill="#2e3191"
         d="m 100.279,123.471 c 0,0 1.4,-0.16 2.941,0.28 0.939,0.26 1.92,0.74 2.689,1.58 10e-4,0 -3.119,-1.61 -5.63,-1.86 z"
         id="path3680"
         style="fill:#2d3371;fill-opacity:1" /><path
         fill="#2e3191"
         d="m 102.811,122.621 c 0,0 1.08,-0.11 2.27,0.22 0.72,0.21 1.49,0.58 2.1,1.24 -10e-4,-0.01 -2.421,-1.25 -4.37,-1.46 z"
         id="path3682"
         style="fill:#2d3371;fill-opacity:1" /><path
         fill="#2e3191"
         d="m 52.38,127.131 c 0,0 -2.97,-0.3 -6.26,0.51 -1.97,0.49 -4.08,1.36 -5.73,2.96 -0.01,0 6.65,-3.01 11.99,-3.47 z"
         id="path3684"
         style="fill:#2d3371;fill-opacity:1" /><path
         fill="#2e3191"
         d="m 48.53,126.271 c 0,0 -2.29,-0.26 -4.83,0.46 -1.53,0.44 -3.15,1.221 -4.43,2.62 -0.01,0.01 5.13,-2.65 9.26,-3.08 z"
         id="path3686"
         style="fill:#2d3371;fill-opacity:1" /><path
         fill="#2e3191"
         d="m 46.15,125.271 c 0,0 -2.04,-0.229 -4.31,0.4 -1.37,0.38 -2.8,1.09 -3.94,2.33 0,0 4.59,-2.36 8.25,-2.73 z"
         id="path3688"
         style="fill:#2d3371;fill-opacity:1" /><path
         fill="#2e3191"
         d="m 43.11,124.401 c 0,0 -1.64,-0.189 -3.45,0.33 -1.09,0.311 -2.25,0.86 -3.15,1.87 0,0 3.66,-1.89 6.6,-2.2 z"
         id="path3690"
         style="fill:#2d3371;fill-opacity:1" /><path
         fill="#2e3191"
         d="m 40.87,123.471 c 0,0 -1.4,-0.16 -2.94,0.28 -0.93,0.26 -1.91,0.74 -2.69,1.58 0,0 3.11,-1.61 5.63,-1.86 z"
         id="path3692"
         style="fill:#2d3371;fill-opacity:1" /><path
         fill="#2e3191"
         d="m 38.34,122.621 c 0,0 -1.06,-0.11 -2.28,0.22 -0.73,0.21 -1.48,0.58 -2.07,1.24 0,-0.01 2.41,-1.25 4.35,-1.46 z"
         id="path3694"
         style="fill:#2d3371;fill-opacity:1" /><polygon
         fill="#2e3191"
         points="116.91,113.501 120.359,112.111 118.87,115.311 120.359,118.501 116.91,117.121 113.45,118.501 114.95,115.311 113.45,112.111 "
         id="polygon3696"
         style="fill:#2d3371;fill-opacity:1" /><polygon
         fill="#2e3191"
         points="24.61,113.501 28.07,112.111 26.58,115.311 28.07,118.501 24.61,117.121 21.15,118.501 22.66,115.311 21.15,112.111 "
         id="polygon3698"
         style="fill:#2d3371;fill-opacity:1" /><path
         fill="#2e3191"
         d="m 0.83,72.371 c 0,-38.61 31.29,-69.9 69.891,-69.9 38.6,0 69.899,31.29 69.899,69.9 0,26.13 -14.351,48.91 -35.601,60.91 0.641,0.18 1.28,0.38 1.94,0.569 21.03,-12.399 35.12,-35.3 35.12,-61.479 0,-39.42 -31.95,-71.37 -71.359,-71.37 -39.411,0 -71.371,31.95 -71.371,71.37 0,26.88 14.87,50.29 36.83,62.449 0.62,-0.21 1.25,-0.43 1.88,-0.649 C 15.91,122.431 0.83,99.161 0.83,72.371 Z"
         id="path3700"
         style="fill:#2d3371;fill-opacity:1" /><path
         fill="#2e3191"
         d="m 136.96,137.661 c 3.101,-2.58 5.34,-9.49 5.431,-9.811 l 0.609,-1.89 -1.51,1.29 c -6.381,5.51 -22.27,4.74 -22.44,4.74 l -1.409,-0.08 0.209,0.229 c 0.07,0.43 0.34,1.99 0.711,4.01 -1.511,-0.22 -2.961,-0.51 -4.271,-0.81 -0.011,-0.021 -0.021,-0.021 -0.03,-0.021 -0.84,-0.199 -1.63,-0.38 -2.33,-0.579 -0.029,0 -0.06,-0.021 -0.08,-0.021 -0.109,-0.04 -0.24,-0.06 -0.35,-0.1 -0.05,-0.021 -0.08,-0.021 -0.109,-0.04 -0.121,-0.04 -0.221,-0.061 -0.341,-0.08 -0.03,-0.01 -0.069,-0.021 -0.12,-0.03 -0.09,-0.03 -0.189,-0.07 -0.3,-0.09 -0.01,-0.01 -0.03,-0.01 -0.04,-0.01 -0.21,-0.061 -0.4,-0.12 -0.59,-0.17 -0.05,-0.03 -0.1,-0.04 -0.13,-0.051 -0.07,-0.029 -0.14,-0.04 -0.21,-0.06 -0.07,-0.021 -0.131,-0.04 -0.18,-0.05 -0.07,-0.01 -0.131,-0.05 -0.201,-0.05 -0.059,-0.04 -0.119,-0.051 -0.18,-0.07 -0.039,-0.01 -0.1,-0.021 -0.149,-0.05 -0.06,-0.011 -0.13,-0.04 -0.2,-0.051 -0.04,-0.029 -0.09,-0.04 -0.12,-0.05 -0.101,-0.02 -0.2,-0.06 -0.28,-0.09 l -0.57,-0.189 c -17.699,-5.4 -28.039,-7.5 -36.859,-7.5 -7.54,0 -19.43,2.85 -35.37,8.46 -0.37,0.119 -0.72,0.239 -1.08,0.359 -0.08,0.03 -0.17,0.061 -0.26,0.08 -0.35,0.12 -0.69,0.22 -1.04,0.33 -0.01,0 -0.02,0 -0.04,0.01 -0.33,0.101 -0.67,0.181 -1,0.28 -0.08,0.03 -0.17,0.05 -0.24,0.08 -0.33,0.09 -0.67,0.18 -1.01,0.26 0,0 -0.03,0.021 -0.04,0.021 -0.31,0.08 -0.63,0.159 -0.94,0.22 -0.07,0.02 -0.14,0.04 -0.22,0.06 -0.32,0.061 -0.64,0.13 -0.94,0.21 -0.03,0 -0.05,0 -0.07,0 -0.3,0.061 -0.58,0.131 -0.89,0.17 -0.06,0.011 -0.14,0.021 -0.2,0.021 -0.31,0.06 -0.61,0.12 -0.91,0.16 -0.03,0.02 -0.05,0.02 -0.08,0.02 -0.27,0.051 -0.54,0.09 -0.81,0.12 -0.07,0.021 -0.12,0.03 -0.19,0.04 -0.28,0.03 -0.56,0.07 -0.84,0.101 -0.02,0 -0.06,0 -0.1,0 -0.24,0.029 -0.48,0.06 -0.72,0.09 -0.06,0 -0.12,0 -0.19,0.01 -0.16,0.02 -0.34,0.03 -0.49,0.04 0.51,-2.59 0.94,-4.75 1.01,-5.07 l 0.12,-0.13 -1.41,0.08 c -0.15,0 -16.06,0.76 -22.44,-4.74 L -1,125.951 l 0.6,1.89 c 0.11,0.32 2.35,7.229 5.43,9.81 -1.05,1.021 -3.62,3.61 -5.52,5.971 l -0.45,0.529 0.64,0.32 c 0.29,0.13 6.81,3.29 13.16,3.11 v 3.75 l 0.36,0.13 c 6.64,2.54 15.15,0.51 20.23,-0.7 l 1.98,-0.44 c 2.38,-0.5 5.63,-1.689 9.38,-3.05 7.77,-2.819 17.43,-6.35 25.9,-6.35 9.271,0 21.42,3.92 30.28,6.79 3.33,1.07 6.21,2.01 8.52,2.609 8.6,2.24 18.99,1.181 19.11,1.181 l 0.5,-0.061 v -3.87 c 6.351,0.181 12.88,-2.97 13.17,-3.109 l 0.63,-0.32 -0.449,-0.53 c -1.901,-2.34 -4.471,-4.93 -5.511,-5.95 z m -124.09,-1.29 v 0.75 9.319 c -4.96,0.15 -10.21,-1.909 -12.01,-2.689 2.35,-2.771 5.39,-5.71 5.43,-5.74 l 0.5,-0.5 -0.61,-0.38 c -2.14,-1.37 -4,-5.561 -4.92,-7.93 6,3.75 16.34,3.989 20.21,3.96 -3.38,2.81 -7.38,3.319 -8.01,3.38 z M 128,150.421 c -2.15,0.18 -10.85,0.72 -18.2,-1.2 -2.26,-0.59 -5.13,-1.51 -8.44,-2.59 -8.949,-2.88 -21.189,-6.84 -30.629,-6.84 -8.681,0 -18.44,3.569 -26.291,6.43 -3.72,1.36 -6.93,2.521 -9.22,3 l -2,0.46 c -4.87,1.15 -12.94,3.05 -19.22,0.851 v -8.03 c 0,-1.99 0,-3.98 0,-4.69 1.05,0.23 3.18,0.57 6.22,0.561 3.91,-0.011 9.29,-0.62 15.68,-2.87 15.82,-5.561 27.59,-8.37 35,-8.37 8.709,0 18.939,2.08 36.529,7.45 l 0.57,0.189 c 3.24,1.011 11.68,3.641 20,2.83 v 12.819 z m 1.13,-3.98 v -10.09 l -0.64,0.07 c -0.65,-0.05 -4.631,-0.48 -7.99,-3.26 3.88,0.029 14.21,-0.21 20.221,-3.96 -0.921,2.369 -2.781,6.56 -4.91,7.93 l -0.61,0.38 0.521,0.5 c 0.029,0.03 3.069,2.97 5.42,5.74 -1.802,0.78 -7.052,2.84 -12.012,2.69 z"
         id="path3702"
         style="fill:#2d3371;fill-opacity:1" /><path
         fill="#2e3191"
         d="m 65.88,126.811 c 1.57,0.15 3.16,0.24 4.78,0.24 4.18,0 8.23,-0.48 12.14,-1.34 -2.97,0.6 -6.43,1.05 -10.39,1.229 -2.31,0.101 -4.48,0.031 -6.53,-0.129 z M 55.7,106.191 c 0,0 -0.41,0.471 -0.44,1.431 z m 10.28,5.2 c -4.35,-0.53 -6.88,-1.81 -8.17,-2.689 l 2.55,2.979 c 4.5,1.95 5.62,-0.29 5.62,-0.29 z m -10.89,8.7 c -1.12,0 -3.2,0.29 -3.2,0.29 0,0 2.08,0.28 3.29,0.28 1.23,0 2.44,0 2.44,0 -0.67,0 -1.41,-0.57 -2.53,-0.57 z m -6.68,2.28 c 3.94,1.83 9.09,3.529 15.36,4.25 -5.42,-0.67 -10.58,-2.12 -15.36,-4.25 z m 7.34,0.06 c -1.31,-0.1 -3.65,-0.46 -3.65,-0.46 1.86,1.5 3.65,0.46 3.65,0.46 z m -4.54,-8.23 c -0.85,0 -1.55,0.13 -2.11,0.56 -0.57,0.43 -2.53,0.72 -2.53,0.72 0,0 0.98,0.13 1.54,0.551 0.56,0.42 2.39,0.42 2.39,0.42 0,0 0,-0.42 0.98,-0.42 0.99,0 -0.98,-0.98 -0.98,-0.98 0,0 0,0 0.83,-0.29 0.85,-0.281 0.71,-0.561 -0.12,-0.561 z m 12.76,5.44 c 0,0 -2.34,-0.66 -3.36,-0.76 -1.04,-0.09 -3.18,-0.74 -4.96,-0.74 -1.78,0 -4.59,1.12 -4.59,1.12 0,0 0.47,0 0.83,0 0.39,0 2.73,-0.18 4.14,-0.18 1.41,0 3,0.56 5.05,0.56 2.06,0 2.89,0 2.89,0 z m 17.501,-1.41 c -5.521,-0.279 -14.781,0.37 -14.781,0.37 0,0 2.25,0.48 3.47,0.48 1.21,0 2.99,0.18 5.05,0.18 2.069,0 3.181,-0.09 4.49,-0.18 1.31,-0.1 1.771,-0.85 1.771,-0.85 z m -5.141,3.46 c -3.471,0 -8.14,-0.08 -8.14,-0.08 3.08,0.91 8.14,0.08 8.14,0.08 z M 70.721,15.971 c -31.151,0 -56.391,25.25 -56.391,56.4 0,27.62 19.85,50.59 46.07,55.439 1.71,-0.34 3.33,-0.62 4.9,-0.819 -14.6,-1.44 -27.51,-8.631 -36.46,-19.25 5.3,6.25 11.98,11.279 19.58,14.63 -5.57,-2.57 -8.8,-5.351 -9.65,-5.84 -1.69,-0.98 -0.56,-1.83 -0.99,-2.53 -0.42,-0.7 -0.99,-0.13 -1.4,-0.13 -0.42,0 -0.69,-0.431 -1.68,-0.7 -0.99,-0.28 -1.69,-1.83 -1.83,-2.38 -0.11,-0.45 1.38,0.76 2.04,1.3 l 0.47,-0.26 19.1,1.13 -0.85,-0.84 -19.45,-0.95 -2.26,-2.61 9.74,-0.2 -1.32,-1.3 -10.29,0.181 -0.71,-1.44 h 19.93 l 5.48,6.73 0.57,0.85 0.76,-0.42 c -0.95,-1.25 -2.17,-2.96 -3.44,-4.22 -1.41,-1.4 -2.14,-4.07 -2.14,-4.07 l 5.2,1.54 1.53,1.8 c 3.17,1.48 20.959,8.51 48.54,-4.08 0,0 -4.5,3.65 -6.649,4.311 -2.14,0.67 -7.229,2.369 -7.229,2.369 1.539,0.69 4.379,-1.729 7.049,-1.17 2.66,0.561 0,1.681 -1.68,1.96 -1.689,0.29 -4.21,0.15 -5.89,0.29 -1.7,0.13 -4.091,-0.14 -3.24,1.12 0.841,1.26 5.761,-0.42 7.729,-0.42 1.961,0 3.361,0 3.65,0.7 0.28,0.7 0,0.99 -0.99,1.4 -0.989,0.43 -2.81,0.279 -5.049,0.279 -2.25,0 -7.021,0.29 -9.121,0.29 -2.119,0 -5.07,1.26 -5.07,1.26 0,0 2.381,0.141 3.791,0.141 1.41,0 6.6,-0.141 8.289,-0.141 1.67,0 3.361,0.421 5.051,0.551 1.68,0.149 2.52,0.43 2.52,0.43 1.12,-0.14 2.94,-1.97 2.94,-1.41 0,0.36 -0.22,1.19 -0.71,1.95 7.859,-5.23 14.3,-12.41 18.59,-20.88 -4.33,8.609 -10.85,15.91 -18.84,21.2 -0.27,0.33 -0.6,0.63 -1,0.83 -1.41,0.71 -0.98,0.56 -2.4,1.27 -0.689,0.34 -2.93,1.79 -6.93,3.271 -4.3,1.67 -8.85,2.819 -13.59,3.359 1.619,0.17 3.32,0.41 5.14,0.71 25.66,-5.29 44.95,-28.01 44.95,-55.229 C 127.1,41.221 101.859,15.971 70.721,15.971 Z M 18.2,86.831 h 3.93 v 1.26 h -3.37 z m -1.26,-1.55 v -0.98 h 3.24 v 1.26 z m 81.951,7.95 c 0,0 -0.471,0.101 -0.65,-0.279 -0.19,-0.37 0.279,-0.46 0.279,-0.46 0,0 0.85,0.179 0.371,0.739 z m -0.091,4.88 c -0.75,0 -3.18,0.36 -3.18,0.36 0,0 -1.32,-0.189 0.17,-1.68 l 3.01,-0.75 c 0,0 0.74,2.07 0,2.07 z m -3.18,-6.94 v -1.68 l 2.8,-0.57 v 2.06 z m 2.9,-4.34 c 0,0.84 -3.229,0 -3.229,0 l 0.28,-1.13 c 0,0 1.119,-0.141 1.55,-0.42 0.409,-0.29 0.409,-0.29 1.399,0.699 0.99,0.981 0,-0.009 0,0.851 z m -2.78,-4.64 c -0.28,0.181 -0.19,0.28 -0.28,0.66 -0.09,0.37 -0.09,0.37 -0.09,0.37 0,0 -0.11,0.28 -0.28,0.28 0,0 -0.369,-0.46 -0.369,-0.931 0,-0.47 0,-0.84 0.369,-0.84 0.37,-0.009 0.939,0.271 0.65,0.461 z m -0.59,11.41 h 1.119 c 0,0 0.19,0.66 0.19,1.04 0,0.37 -0.83,1.021 -1.59,1.021 -0.74,0 -2.05,0.279 -2.24,-0.29 -0.2,-0.561 -0.38,-0.931 0.55,-1.59 z m -39.04,3 c 0,0 2.07,1.141 3.19,1.141 l -0.18,0.93 c 0,0 -2.06,-0.19 -3,-0.93 v -1.141 z m -0.36,-1.5 0.09,-1.68 c 0,0 1.31,0.84 1.86,0.84 v 1.4 c 0,0.01 -1.12,0.2 -1.95,-0.56 z m 3.17,4.69 2.24,0.37 c 0,0 0.57,1.88 -0.36,1.88 -0.94,-0.01 -3.75,-0.01 -1.88,-2.25 z m -0.28,4.3 c -1.27,0 -3.11,-0.84 -3.11,-0.84 l 0.01,-1.271 c 1.83,1.13 2.95,0.71 2.95,0.71 z m 7.44,-18.64 h 1.82 1.55 1.819 0.84 c 0,0 0.851,0.39 1.271,0.39 0.431,0 1.97,0 1.97,0 0,0 -0.699,-0.56 0.28,-0.56 0.979,0 3.8,-0.141 5.05,-0.141 1.28,0 4.5,-0.14 5.471,-0.14 0.99,0 1.97,0 1.97,0 0,0 0.42,0.71 -0.14,0.71 -0.561,0 -0.15,0 -1.961,0 -1.83,0 -2.539,0.27 -4.229,0.27 -1.681,0 -2.521,0.15 -3.22,0.15 -0.69,0 -1.541,0.14 -1.541,0.14 0,0 0.421,0.561 -0.709,0.561 -1.12,0 -4.07,-0.271 -5.61,-0.13 -1.54,0.13 -3.37,0.13 -5.2,0.13 -1.83,0 -3.37,-0.141 -3.37,-0.141 0,0 -0.69,-0.42 -0.99,-0.979 h 1.41 l 0.63,-0.63 h 1.49 l 0.38,0.38 h 1.02 v -0.01 z m -0.28,-1.01 v -1.55 h 3.94 v 1.55 z m 5.91,-1.55 h 3.5 v 1.12 h -3.37 z m 4.89,-0.28 h 3.521 v 1.261 h -3.37 z m 4.78,0 h 2.81 v 0.98 h -2.66 z m 3.559,14.37 c -1.299,0.181 -2.06,0.28 -2.239,-0.479 -0.181,-0.74 -0.56,-0.84 0,-1.41 l 3.29,-0.19 c 0,0 0.74,0.101 0.74,0.66 -0.009,0.569 -0.48,1.229 -1.791,1.419 z m 4.311,1.13 c 0,0 1.49,1.671 0,1.86 -1.49,0.19 -4.59,1.311 -3.93,-1.86 z m -16.71,-5.67 v 2.101 l -3.36,-0.28 v -1.82 h 3.36 z m -2.38,-4.64 h 2.8 l 0.13,3.1 -2.67,-0.14 z m -0.98,3.24 -4.64,-0.141 -0.15,-2.81 c 0,0 4.5,0.56 4.92,0.28 z m -1.55,1.4 0.15,1.82 -3.1,-0.29 -0.42,-1.82 z m -0.39,4.63 -0.46,-1.68 3.93,0.38 v 1.59 z m 0.66,1.04 -0.36,1.86 -2.82,-0.55 0.38,-1.311 c 0,0.001 1.87,0.361 2.8,0.001 z m 1.69,0.17 3.74,0.189 -0.37,1.87 -3.56,-0.18 z m 2.53,-0.93 v -1.68 l 3.28,0.189 0.199,1.58 z m 11.521,-5.24 0.18,1.69 -4.12,0.38 -0.181,-2.06 h 4.121 z m -0.991,-2.06 v -2.39 h 2.109 v 2.39 z m -1.4,0.28 h -3.23 v -2.53 h 3.23 z m -2.68,1.97 v 1.88 h -3.92 v -1.689 z m -4.47,-1.83 0.121,-2.229 h 2.68 l 0.41,2.229 z m 0.36,8.38 h 3.37 v 2.05 l -3.37,-0.18 z m 2.819,-3.27 h 2.801 c 0,0 1.029,-0.2 1.029,0.279 0,0.46 0.67,0.94 -0.09,1.21 -0.75,0.28 -1.869,0.57 -2.52,0.57 -0.669,0.001 -1.979,0.181 -1.22,-2.059 z m 2.421,3.08 h 3.569 c 0,0 1.121,0.189 0.74,1.13 -0.369,0.93 -0.93,0.93 -2.439,0.93 -1.49,0 -3.36,0.38 -1.87,-2.06 z m 6.191,-11.7 h 2.369 v 2.24 h -2.24 z m -20.041,8.33 -0.38,1.97 -3.18,-0.47 -0.1,-1.78 z m -5.39,-2.01 v -1.4 l 2.68,0.56 v 1.4 z m 3.14,4.83 -0.37,1.311 c 0,0 -1.32,-0.2 -2.62,-0.95 l 0.19,-0.93 c 0,-0.001 1.87,0.569 2.8,0.569 z m -0.04,5.84 v 1.55 l -3.65,-0.71 -0.42,-1.54 c 1.27,1.27 4.07,0.7 4.07,0.7 z m -0.14,-2.85 h 2.99 c 0,0 1.31,1.87 -0.37,1.87 -1.68,0 -4.49,-0.75 -2.62,-1.87 z m 2.25,3.56 c 1.98,1.399 3.36,0.279 3.36,0.279 v 1.69 l -3.36,-0.57 z m 2.8,-3 2.059,0.189 c 0,0 1.601,1.22 -0.199,1.32 -1.78,0.081 -3.73,-0.009 -1.86,-1.509 z m 2.251,3.26 c 0.989,0.82 2.67,0.01 2.67,0.01 l -0.131,1.69 -2.529,-0.44 v -1.26 z m 1.869,-2.7 3.36,0.18 c 0,0 1.5,1.311 -0.36,1.311 -1.869,0.009 -5.43,0.009 -3,-1.491 z m 2.34,2.85 c 1.4,0.57 2.95,0.431 2.95,0.431 v 1.399 l -2.95,-0.13 z m 3.09,-2.85 h 3.19 c 0,0 1.67,1.311 0,1.311 -1.69,-10e-4 -5.26,1.309 -3.19,-1.311 z m 1.259,2.85 h 4.201 c 0,0 1.56,0.57 1,0.98 -0.57,0.43 -1.28,0.43 -2.82,0.43 -1.54,0 -3.23,0.84 -2.381,-1.41 z m 3.66,-1.54 c 0,0 -1.549,-0.891 0.141,-1.5 l 2.949,-0.32 c 0,0 0.98,0.56 0.98,1.26 0,0.7 -2.1,0.561 -2.1,0.561 h -1.97 z m 2.952,0.99 c 0,0 3.639,-0.569 4.06,-0.43 0.43,0.14 0.989,0.7 0.43,1.41 -0.569,0.689 -1.97,0.84 -2.95,0.84 -0.992,0 -2.671,-0.29 -1.54,-1.82 z m 2.809,-1.55 c 0,0 -1.7,-0.7 -0.29,-1.54 l 2.96,-0.29 c 0,0 1.55,0.13 0.54,1.12 -0.98,0.99 -3.21,0.71 -3.21,0.71 z m 2.239,-5.06 2.99,-0.561 c 0,0 1.131,1.311 0.19,1.5 -0.949,0.191 -3.379,1.971 -3.18,-0.939 z m 0,-5.42 -0.56,-2.061 3.38,-0.56 0.17,2.06 z m 1.401,-9.04 -2.52,0.14 -0.141,-1.26 h 2.67 v 1.12 z m -0.561,3.23 v 1.83 H 89.39 v -1.83 z m -1.699,7.77 1.04,0.56 c 0,0 0.28,1.21 -0.38,1.21 -0.66,0 -1.49,0.66 -2.15,0.28 -0.65,-0.37 -0.55,-1.311 -0.18,-1.69 z m -1.21,-1.22 -2.42,0.19 -0.36,-2.25 h 2.79 v 2.06 z m -0.46,-9.5 h -2.381 l -0.139,-1.27 h 2.52 z m -3.09,-4.26 v 1.271 H 81.8 v -1.271 z m -0.36,-1.7 v -1.27 h 3.521 v 1.26 H 84.96 Z m -1.48,0 h -3.5 v -1.27 h 3.5 z m -3.14,1.7 v 1.271 h -3.51 v -1.271 z m -1.83,-1.7 H 75 v -1.27 h 3.51 z m -3.16,1.7 v 1.271 h -3.51 v -1.271 z m -1.821,-1.7 H 70.02 v -1.27 h 3.509 z m -3.169,1.7 v 1.271 h -3.51 v -1.271 z m -1.82,-1.7 h -3.5 v -1.27 h 3.5 z m -3.16,1.7 v 1.271 h -3.5 v -1.271 z m -0.84,3.7 v 0.99 h -4.22 l 0.13,-0.99 z m -1.69,4.49 0.14,2.67 h -3.08 l -0.13,-2.67 z m -1.59,7.54 -0.46,1.31 -2.16,-0.56 V 94.73 Z m -2.47,-1.78 -2.53,-0.561 -0.14,-1.689 2.81,0.84 z m -1.98,-5.62 h 1.83 v 1.83 h -1.7 z m 1.83,-3.22 h -3.51 v -1.4 h 3.51 z m -2.63,-9.18 -1.11,0.051 v -1.471 h 1.11 z m -0.3,-2.44 -1.11,0.06 v -1.81 h 1.11 z m -0.41,-3.25 -0.78,0.04 v -1.38 h 0.78 z m -0.29,-2.08 -0.73,0.05 v -1.29 h 0.73 z m -0.54,-2.06 -0.49,-0.039 -0.11,-1.561 h 0.71 z m 0.8,20.4 v 1.13 h -2.8 l -0.14,-1.13 z m -4.03,13.25 c -0.93,0.37 -3.74,0.2 -3.74,0.2 0,0 -0.75,0.37 -0.37,-1.51 l 3.92,0.199 c 0,0.001 1.13,0.741 0.19,1.111 z m 1.92,1.5 c 0,0 0.28,0.84 -0.27,1.13 -0.57,0.28 -3.51,0.561 -2.12,-0.979 z m -29.47,-4.49 h 3.66 v 1.271 h -3.66 z m -2.12,-4.64 0.28,-2.38 3.51,0.14 v 2.53 z m 3.24,2.67 v -1.13 h 4.78 v 1.13 z m 22.46,-3.5 -3.65,-0.15 v -1.819 h 3.65 z m 2.66,1.68 v 1.4 h -3.51 v -1.4 z m -5.05,-0.14 v 1.97 h -3.79 l -0.15,-1.97 z m -3.1,-1.54 h -3.63 v -1.55 h 3.63 z m -1.67,1.54 v 1.54 h -3.93 v -1.54 z m -3.52,-0.98 h -4.21 l 0.28,-2.25 h 3.93 z m -1.67,1.12 v 1.681 h -4.35 v -1.681 z m -3.52,-1.12 h -4.21 l 0.27,-2.109 h 3.94 z m -2.52,5.05 4.07,-0.15 -0.14,1.12 h -4.22 z m 3.93,2.29 2.89,-0.19 c 0,0 0.56,0.29 0.56,0.95 0,0.649 -0.85,0.74 -1.97,0.74 -1.12,0 -2.43,-0.271 -2.43,-0.83 0.01,-0.57 0.95,-0.67 0.95,-0.67 z m 1.83,-1.45 c 0,0 -1.07,-0.57 -0.29,-1.55 h 3.38 c 0,0 0.55,1.399 -0.28,1.399 -0.86,0.011 -2.81,0.151 -2.81,0.151 z m 3.6,1.07 1.87,0.289 c 0,0 0,0.65 0,1.03 0,0.37 -0.57,0.561 -1.31,0.561 -0.76,0 -1.69,-0.74 -1.69,-1.311 0.01,-0.569 1.13,-0.569 1.13,-0.569 z m 1.12,-1.3 c -1.68,-1.029 0,-1.779 0.38,-1.779 0.38,0 1.03,0 1.96,0 0.93,0 0.56,0.18 0.76,0.569 0.18,0.37 -0.37,1.21 -0.37,1.21 z m 5.34,1.4 c 0,0 2.06,0.47 1.3,0.84 -0.74,0.37 -1.49,0.37 -2.43,0.37 -0.94,0 -2.06,0.56 -2.06,-1.31 z m -0.94,-1.78 c 0,0 -0.38,-0.649 0.47,-1.109 l 1.41,-0.101 c 0,0 0.93,0 1.4,0 0.46,0 1.4,-0.28 1.4,0.101 0,0.369 0.46,1.109 -0.28,1.109 -0.74,0 -4.4,0 -4.4,0 z m 6.28,0 v -1.31 l 4.12,-0.19 0.07,1.59 z m -1.22,-5.99 v -0.279 -1.681 h 4.76 v 1.96 z m 4.34,-5.89 h -3.65 v -1.97 h 3.65 z m -2.66,1.4 V 87.1 h -3.23 v -0.979 z m -2.81,-1.54 h -4.63 l -0.28,-1.4 h 4.91 z m -2.39,1.54 v 1.13 h -4.49 l -0.14,-1.13 z m -3.65,-0.84 H 37.3 l 0.27,-1.961 h 4.08 z m -2.24,0.98 v 1.12 h -4.08 l 0.15,-1.12 z m -3.23,-0.84 h -3.37 v -1.97 h 3.37 z m -1.97,0.84 v 1.69 h -4.5 l 0.14,-1.69 z m -2.67,-8.15 -0.14,0.561 -0.84,0.29 c 0,0 0.42,0.84 -0.71,0.28 v -0.57 l 0.71,-1.12 h 0.42 0.55 v 0.56 h 0.01 z m -0.42,5.62 v 1.83 h -4.78 l -0.28,-1.83 z m -2.67,2.67 v 1.4 h -5.07 l -0.13,-1.4 z m -3.78,-1.12 H 21.01 V 84.72 83.741 l 3.66,0.14 z m -4.22,7.02 -1.54,-1.13 v -1.54 h 1.54 z m 0.28,0.83 h 1.54 l 1.27,1.41 h -2.81 z m 3.56,6.94 c -0.94,-0.289 -1.03,-1.13 -0.46,-1.5 0.55,-0.38 2.06,-0.289 2.06,-0.289 0,0 1.5,1.05 0.37,1.6 0,-0.001 -1.04,0.459 -1.97,0.189 z m 0.79,1.64 3.24,0.13 c 0,0 0.83,0.56 0.27,0.84 -0.55,0.29 -2.25,1.27 -3.51,-0.97 z m 2.26,3.36 -0.29,-0.84 h 1.96 l 0.28,0.431 z m 0.79,-4.81 c 0,0 -1.79,-0.84 0,-1.5 h 2.52 c 0,0 1.03,0.57 0.37,1.21 -0.64,0.66 -2.89,0.29 -2.89,0.29 z m 2.01,1.3 h 3.09 c 0,0 1.53,0.57 0.84,1.13 -0.7,0.561 -2.11,0.28 -2.95,0.28 -0.85,0 -1.83,-0.28 -0.98,-1.41 z m 1.26,3.1 -0.57,-0.99 4.49,0.42 0.15,0.85 z m 6.46,-1.83 c -1.27,0.14 -4.07,0.14 -3.08,-1.681 H 38 c 0,-0.009 1.13,1.541 -0.14,1.681 z m 4.64,1.83 -3.78,-0.141 -0.29,-0.569 h 4.07 z m 0.84,-2.11 c -0.99,0 -2.67,0 -2.67,0 0,0 -1.82,0.28 -0.99,-1.12 l 3.8,0.13 c 0,0 0.84,0.99 -0.14,0.99 z m 1.54,-1.27 h 4.21 c 0,0 0.84,0.989 -0.28,1.13 -1.12,0.14 -5.75,0.7 -3.93,-1.13 z m 8.15,3.51 -4.07,-0.41 -0.28,-0.84 h 4.64 l 0.14,0.84 z m 0.47,-5.37 c -0.94,-0.2 -1.69,-0.39 -0.94,-1.69 l 1.67,0.181 c 0,-0.001 0.2,1.689 -0.73,1.509 z m 0.79,-6 h -2.81 l 0.28,-1.41 h 2.53 z m 1.08,5.43 c 0,0 1.69,0.75 1.69,1.49 -0.01,0.76 -2.44,0.76 -1.69,-1.49 z m 39.36,8.47 c -0.711,0.421 -14.051,3.08 -20.78,2.521 -6.74,-0.56 -20.08,-3.08 -18.4,-5.06 0,0 13.2,4.22 19.38,3.8 6.17,-0.42 17.551,-0.99 19.791,-2.54 0.009,0.009 0.709,0.859 0.009,1.279 z m 0.129,-2.38 c -0.84,0.13 -2.239,0.13 -2.67,0.28 -0.41,0.14 -0.68,1.13 -0.979,-0.42 l 0.28,-0.98 c 0,0 0.99,0 1.27,-0.27 0.28,-0.28 1.83,0.27 1.83,0.27 0,0 1.12,0.97 0.269,1.12 z m 2.121,-3.93 c -0.431,0.42 -3.09,1.12 -3.09,1.12 0,0 -0.99,-0.57 -0.141,-1.83 l 2.51,-0.56 c 0.011,0 1.132,0.85 0.721,1.27 z m 1.959,5.18 -0.699,0.15 c 0,0 0,1.12 -1.12,-0.29 0,0 -0.14,-0.7 0.28,-0.84 0.42,-0.141 1.55,-0.141 1.55,-0.141 v 1.12 h -0.011 z m 1.161,-4.06 h -0.7 -0.56 c 0,0 -0.66,0.52 -0.71,-0.15 l 1.42,-0.97 c 0,0 0.7,-0.42 0.851,0 0.128,0.42 -0.301,1.12 -0.301,1.12 z m 0.98,-18.26 c 0,0 -0.38,0.279 -0.551,-0.09 -0.199,-0.381 0.091,-0.561 0.091,-0.561 h 0.47 l 0.381,0.47 z m 2.21,10.49 c 0,0 0.95,2.24 0,2.24 -0.94,0 -3.181,0.2 -3.181,0.2 0,0 -0.369,0.19 0.181,-1.5 z m -3.09,-4.31 c 0,0 -0.83,-1.54 -0.14,-1.54 0.71,0 1.26,1.26 0.14,1.54 z m 1.82,9.55 h -0.699 -0.551 c 0,0 -0.66,0.53 -0.699,-0.149 l 1.41,-0.98 c 0,0 0.699,-0.42 0.84,0 0.118,0.429 -0.301,1.129 -0.301,1.129 z m 2.15,0.83 -0.93,0.101 v -0.931 h 0.93 z m 0.43,-8.23 c 0,0 -0.369,0.279 -0.55,-0.101 -0.2,-0.37 0.08,-0.56 0.08,-0.56 h 0.47 l 0.371,0.47 z m 0.7,-4.11 c 0,0 -0.37,-0.47 -0.37,-0.94 0,-0.47 0,-0.84 0.37,-0.84 0.38,0 0.931,0.271 0.65,0.471 -0.271,0.18 -0.181,0.279 -0.271,0.649 -0.1,0.37 -0.1,0.37 -0.1,0.37 0,0 -0.099,0.28 -0.279,0.29 z m 0.16,-5.41 v -0.56 h 0.49 v 0.56 z m 2.069,13.55 c -0.27,0 -1.309,-0.09 -1.309,-0.09 l -0.281,-0.46 h -0.359 v -0.38 c 0,0 0.18,-0.27 0.55,-0.27 0.37,0 1.601,0 1.601,0 l 0.18,0.75 z m 0.381,-7.77 -0.381,0.189 c 0,0 -0.369,0.271 -0.549,-0.1 -0.19,-0.37 0.1,-0.56 0.1,-0.56 h 0.46 z m -0.06,-5.71 V 82.19 h 0.49 v 0.561 z m 0.339,8.8 c -0.279,0.18 -0.18,0.27 -0.279,0.65 -0.08,0.38 -0.09,0.38 -0.09,0.38 0,0 -0.11,0.279 -0.291,0.279 0,0 -0.369,-0.47 -0.369,-0.939 0,-0.469 0,-0.851 0.369,-0.851 0.381,0.011 0.951,0.291 0.66,0.481 z m 0.821,-5.99 c -0.3,0.181 -0.199,0.28 -0.3,0.65 -0.09,0.37 -0.09,0.37 -0.09,0.37 0,0 -0.11,0.29 -0.29,0.29 0,0 -0.359,-0.48 -0.359,-0.94 0,-0.47 0,-0.84 0.359,-0.84 0.38,0.01 0.96,0.28 0.68,0.47 z m 2.15,10.11 -0.93,0.1 v -0.95 h 0.93 z m -0.91,-13.3 c 0,-0.46 0,-0.84 0.38,-0.84 0.37,0 0.94,0.279 0.66,0.47 -0.28,0.18 -0.19,0.27 -0.28,0.649 -0.08,0.37 -0.08,0.37 -0.08,0.37 0,0 -0.109,0.271 -0.289,0.28 -0.011,0.011 -0.391,-0.449 -0.391,-0.929 z m 2.77,11.05 c -0.27,0 -1.31,-0.09 -1.31,-0.09 l -0.271,-0.471 h -0.379 v -0.369 c 0,0 0.199,-0.28 0.56,-0.28 0.38,0 1.601,0 1.601,0 l 0.18,0.75 z m -1.22,-6.93 c 0,-0.65 0.56,-1.21 0.851,-1.21 0.279,0 0.47,0.47 0.47,0.47 0,0 0.09,0.74 0.09,1.04 0,0.279 0.271,0.74 -0.56,0.649 0,0 0,0.19 -0.561,-0.18 -0.561,-0.389 -0.29,-0.109 -0.29,-0.769 z m 2.729,3.94 c -0.569,0 -0.569,0 -1.039,0 -0.471,0 -0.74,0 -0.74,0 0,0 -0.189,-0.479 0.18,-0.479 0.381,0 0.85,-0.091 0.85,-0.091 0,0 -0.559,-0.369 0.091,-0.56 0.659,-0.18 0.659,-0.18 0.659,-0.18 l 0.74,0.37 0.65,0.84 c 0,0 -0.84,0.1 -1.391,0.1 z m 1.58,-2.71 c -0.709,-0.24 -0.469,-0.47 -0.659,-1.03 -0.181,-0.56 -0.38,-1.779 0.47,-1.689 0.84,0.1 0.84,0.479 0.84,1.05 0.01,0.529 -0.09,1.849 -0.651,1.669 z m 5.641,-7.27 h -34.8 v -1.49 h 34.8 z m -21.83,-7.67 c 1.83,-0.99 1.68,-0.98 2.801,-0.98 1.119,0 1.409,-0.41 2.119,0.43 0.689,0.84 0.83,0.28 1.11,0.84 0.29,0.561 0.979,0.7 0.979,0.7 h 0.99 l 1,0.561 c 0,0 0.689,0.43 1.95,-0.41 1.26,-0.84 1.97,-0.141 2.399,-0.99 0.41,-0.84 1.69,-0.41 2.381,-0.41 0.709,0 2.1,1.681 2.1,1.681 l 1.42,0.279 1.26,0.141 0.69,0.42 c 0,0 0.34,-0.4 0.42,-0.011 0.08,0.391 0.08,1 -0.24,1.08 -0.3,0.08 -0.3,0.16 -0.53,0.54 -0.229,0.38 -0.609,0.38 -0.85,0.38 -0.241,0 -0.54,-0.38 -0.84,-0.31 -0.32,0.08 -0.391,0.08 -0.77,0.15 -0.381,0.08 -0.381,0 -0.91,-0.45 -0.551,-0.46 -0.711,-0.62 -1,-0.62 -0.32,0 -0.15,0.38 -0.621,-0.23 -0.459,-0.6 0.15,-0.149 -0.459,-0.6 -0.62,-0.47 -0.301,-0.63 -0.62,-0.47 -0.31,0.149 -0.681,-0.23 -0.681,-0.23 0,0 -0.24,-0.149 -0.76,0 -0.55,0.15 -0.55,0.54 -0.64,0.99 -0.06,0.47 -0.681,0.62 -1.14,0.62 -0.461,0 -0.771,0 -1.311,0.38 -0.54,0.38 -0.77,0.61 -1.08,0.61 -0.31,0 -1.22,0.159 -1.22,0.159 0,0 -0.62,0.08 -0.931,0 -0.299,-0.069 -0.85,-0.609 -1.299,-0.77 -0.461,-0.16 -0.841,-0.23 -1.301,-0.7 -0.47,-0.46 -0.01,-0.31 -0.699,-0.76 -0.69,-0.46 -1,-0.54 -1.23,-0.46 -0.221,0.08 -0.85,0 -1.311,0.229 -0.449,0.23 -0.3,0.841 -0.68,0.931 -0.391,0.069 -1,0.149 -1,0.149 0,0 -0.311,0.46 -0.699,0.7 -0.391,0.23 -0.541,0.46 -1.15,0.46 -0.6,0 -0.771,-0.229 -1.15,-0.54 -0.391,-0.3 -0.699,-0.229 -0.92,-0.3 -0.23,-0.08 -0.391,-0.39 -0.62,-0.55 -0.22,-0.15 0.17,-0.08 -0.22,-0.15 -0.391,-0.08 -0.25,0 -0.7,-0.08 -0.47,-0.08 -0.771,-0.22 -1,-0.449 -0.239,-0.24 -0.54,-0.091 -0.76,-0.391 -0.229,-0.3 -0.54,-0.689 -0.54,-0.689 l -0.53,-0.46 0.95,0.159 2.391,0.28 c 0,0 1.67,0.14 1.969,0.561 0.271,0.42 0.131,1.119 0.84,0.699 0.701,-0.42 1.681,-1.399 1.681,-1.399 0,0 -0.858,0.26 0.962,-0.72 z m 23.59,0.84 -0.85,0.279 -0.42,-0.56 0.42,-0.13 h 0.43 0.42 z m 1.019,-5.76 -0.459,0.19 h -0.93 c 0,0 0,0 -0.66,0.48 -0.66,0.46 0,0 -0.28,0.359 -0.28,0.37 -0.101,0.28 -0.101,0.28 0,0 0,0.29 0.2,0.56 0.181,0.28 0,0.28 -0.28,0.75 -0.279,0.471 0.181,0.19 0.381,1.03 0.18,0.84 -0.95,0.37 -1.69,0.65 -0.75,0.29 -0.569,-0.181 -0.851,-0.28 -0.289,-0.1 -0.379,0 -0.379,0 0,0 -0.371,0 -0.75,-0.1 -0.371,-0.091 0,-0.57 0,-0.57 l -0.66,-0.36 -0.561,-0.18 -0.09,-0.29 -0.93,-0.18 -0.85,-0.101 c 0,0 -0.091,-0.46 -0.65,-0.46 -0.561,0 -0.84,-0.37 -0.84,0 0,0.38 -0.19,0.66 -0.19,0.66 0,0 -0.479,0 -0.851,-0.57 -0.369,-0.56 -0.469,0 -0.76,0 -0.27,0 -0.56,0 -0.56,0 l -0.19,0.471 c 0,0 -0.369,0.47 -0.75,0.47 -0.379,0 0.101,0.28 -0.189,0.649 -0.28,0.37 -0.36,0 -1.02,-0.1 -0.641,-0.08 -0.101,0.48 -0.371,0.48 -0.27,0 -0.47,0.29 -0.76,0.29 -0.27,0 0.1,-0.29 0.1,-0.29 l -0.469,-0.48 c 0,0 -0.181,-0.46 -0.181,-0.74 0,-0.279 -0.649,-0.189 -0.94,-0.39 -0.279,-0.18 -0.569,0.1 -0.66,-0.28 -0.1,-0.37 0,0 -0.379,-0.27 -0.371,-0.29 -0.931,-0.29 -0.931,-0.29 0,0 -0.271,0.1 -0.75,0.47 -0.47,0.37 -0.659,0.19 -0.93,-0.18 -0.28,-0.38 -0.66,-0.181 -0.66,-0.181 l -0.84,-0.1 -0.841,0.75 h -0.359 l -0.29,-0.19 h -0.29 l -0.93,0.19 c 0,0 0,0 -0.2,0.47 -0.101,0.271 -0.11,0.351 -0.11,0.37 -0.07,0 -0.33,0 -0.729,0 -0.47,0 -0.181,0.36 -0.181,0.36 l -0.279,0.57 -0.75,0.199 h -0.37 l -0.56,-0.38 c 0,0 -1.871,-0.1 -2.23,-0.1 -0.391,0 -1.33,0 -2.07,0 -0.74,0 -1.029,0 -1.869,0 -0.841,0 -1.5,0.1 -2.711,0.37 -1.22,0.279 -0.939,-0.28 -1.209,-0.28 -0.291,0 -0.201,-0.29 -0.201,-0.29 0,0 -0.18,-0.56 -0.18,-0.94 0,-0.369 0,-0.46 -0.09,-0.75 -0.09,-0.27 -0.66,-0.18 -1.22,-0.18 -0.56,0 -0.38,-0.479 -0.841,-0.479 -0.469,0 -1.779,-0.091 -2.25,-0.091 -0.459,0 -4.119,0 -4.119,0 0,0 -1.5,0.19 -1.78,0.28 -0.28,0.09 -1.22,0.38 -1.399,0.65 -0.201,0.279 -0.75,0.1 -1.131,0.38 -0.369,0.28 -0.459,2.12 -0.459,2.12 0,0 -2.581,0 -2.761,-0.061 -0.18,-0.06 -0.18,-0.3 -0.18,-0.3 0,0 -0.36,-0.24 -0.47,-0.42 -0.13,-0.18 -0.19,-0.29 -0.19,-0.29 l -0.18,-0.3 c 0,0 0,0 -0.11,-0.66 -0.12,-0.66 0,0 0.29,-0.12 0.3,-0.13 0.24,-0.31 0.24,-0.31 0,0 -0.36,-0.181 -0.48,-0.53 -0.11,-0.36 0.19,-0.12 0.19,-0.12 0,0 -0.12,-0.3 -0.49,-0.37 -0.36,-0.05 -0.42,0.13 -0.72,0.13 -0.3,0 -0.18,0.29 -0.18,0.29 l -0.13,0.42 h -0.3 c 0,0 0,0 -0.29,0.061 -0.3,0.06 -0.36,0.78 -0.36,0.78 h -0.41 l -0.12,0.17 c 0,0 0,0.18 0.17,0.42 0.18,0.229 0.06,0.359 -0.17,0.359 -0.25,0 -0.43,0 -0.73,0.13 -0.3,0.11 0,0 0,0.29 0,0.29 -0.23,0.181 -0.23,0.181 0,0 -0.42,0.31 -0.42,0.67 0,0.359 -0.07,0.359 -0.07,0.359 0,0 0,0 -0.18,0.11 -0.18,0.12 -0.18,0.07 -0.37,0.3 -0.17,0.25 0,0.36 0,0.36 0,0 -0.12,0.37 -0.29,0.42 -0.18,0.06 0,0.18 0.12,0.48 0.11,0.3 0,0 0.23,0.18 0.24,0.18 0.24,0.06 0.18,0.42 -0.06,0.35 -0.3,0.35 -0.3,0.35 0,0 0,0.601 0,0.79 0,0.17 -0.06,0.29 -0.17,0.59 -0.13,0.301 -0.43,-0.119 -0.43,-0.119 0,0 0.19,-0.41 0.24,-0.65 0.09,-0.33 -0.36,-0.26 -0.36,-0.26 l -0.41,-0.2 c 0,0 -0.1,-0.15 -0.1,-0.36 0,-0.199 -0.09,-0.05 -0.09,-0.05 0,0 0,-0.149 -0.15,-0.36 -0.16,-0.199 0.32,-0.409 0.11,-0.56 -0.2,-0.15 0,0 0,-0.25 0,-0.25 -0.16,-0.4 -0.16,-0.4 0,0 -0.24,0 -0.39,0 -0.14,0 -0.3,0 -0.41,-0.35 -0.1,-0.35 0.31,-0.1 0.31,-0.41 0,-0.3 0,0 -0.17,-0.149 -0.15,-0.15 -0.19,-0.19 -0.19,-0.44 0,-0.26 0.04,-0.31 0.09,-0.46 0.05,-0.15 -0.15,-0.15 -0.15,-0.45 0,-0.31 0.1,-0.2 0,-0.45 -0.1,-0.25 -0.5,-0.04 -0.66,-0.25 -0.15,-0.199 0.06,-0.1 0.36,-0.149 0.3,-0.05 -0.21,-0.24 -0.21,-0.44 0,-0.2 -0.2,-0.149 -0.35,-0.45 -0.14,-0.31 0,0 0.15,-0.21 0.16,-0.199 0.05,-0.3 0,-0.55 -0.04,-0.25 0,0 -0.04,-0.2 -0.05,-0.199 -0.25,-0.149 -0.25,-0.149 0,0 -0.3,-0.05 -0.21,-0.351 0.1,-0.3 0,0 0.15,-0.25 0.16,-0.25 -0.24,-0.35 -0.24,-0.35 l -0.05,-0.75 -0.16,-0.15 c 0,0 -0.1,-0.26 -0.19,-0.51 -0.11,-0.25 0,0 -0.15,0 -0.16,0 -0.16,-0.149 -0.16,-0.149 l 0.1,-0.351 -0.1,-0.45 c 0,0 -0.3,-0.399 -0.3,-0.6 0,-0.21 -0.51,-0.4 -0.51,-0.4 l 0.16,-0.359 c 0,0 0.2,-0.101 0.39,-0.25 0.21,-0.15 -0.09,-0.101 -0.09,-0.4 0,-0.29 -0.1,-0.35 -0.16,-0.6 -0.05,-0.24 -0.09,-0.24 0,-0.45 0.1,-0.2 -0.09,-0.35 0.06,-0.46 0.15,-0.09 -0.06,-0.7 -0.06,-0.7 0.06,-0.25 -0.14,-0.6 -0.14,-0.6 0,-0.351 -0.3,-0.4 -0.3,-0.4 0.07,-0.09 0.05,-0.16 0.02,-0.229 l -0.22,-0.021 -0.75,-0.1 -0.4,0.05 c 0,0 -0.65,0 -0.8,0 -0.16,0 -1.01,-0.3 -1.01,-0.3 H 53.949 53.2 c 0,0 -0.4,-0.101 -0.66,-0.101 -0.24,0 -1.05,-0.2 -1.35,-0.2 -0.3,0 -1.77,-0.46 -1.77,-0.46 l 8.69,1.11 c -0.08,-0.11 -0.25,-0.15 -0.25,-0.15 0,-0.399 -0.45,-0.25 -0.45,-0.25 0.3,-1.149 -0.96,-2.27 -1.2,-2.27 -0.25,0 -0.1,0.36 -0.1,0.36 0,0 0,0.239 0.14,0.5 0.15,0.25 0,0.399 0,0.649 0,0.25 -0.1,0.561 -0.1,0.561 H 56 55.6 c 0.15,-0.21 -0.1,-0.771 -0.1,-0.771 0.3,-0.149 -0.09,-0.59 -0.09,-0.59 l -0.11,-0.61 -0.1,0.61 c -0.2,0.19 0.1,0.7 0.1,0.7 -0.29,0 -0.2,0.56 -0.2,0.56 l -0.41,-0.06 c 0.1,-0.36 -0.2,-0.76 -0.2,-0.76 0.34,-0.15 0,-0.561 0,-0.561 l -0.2,-0.7 v 0.7 c -0.25,0.16 -0.04,0.45 -0.04,0.45 l 0.04,0.41 c -0.2,0.05 -0.2,0.35 -0.2,0.35 l -0.26,-0.05 c 0,-0.4 -0.19,-0.71 -0.19,-0.71 0.4,0 0,-0.6 0,-0.6 l -0.11,-0.75 -0.1,0.75 c -0.25,0.1 -0.04,0.439 -0.04,0.439 l 0.04,0.36 c -0.2,0 -0.3,0.35 -0.3,0.35 l -0.15,-0.06 -0.05,-0.19 -0.1,-0.399 c 0.26,-0.301 -0.15,-0.65 -0.15,-0.65 l -0.2,-0.6 0.05,0.6 c -0.24,0.11 -0.05,0.41 -0.05,0.41 v 0.34 c -0.25,0.06 -0.19,0.25 -0.25,0.46 -0.05,0.19 -0.31,0 -0.31,0 0.05,-0.21 -0.15,-0.51 -0.15,-0.51 l -0.04,-0.351 c 0.45,-0.149 -0.05,-0.55 -0.05,-0.55 l -0.05,-0.6 -0.1,0.649 c -0.35,0 0,0.44 0,0.44 v 0.3 c -0.31,0 -0.1,0.4 -0.2,0.561 -0.11,0.149 -0.41,-0.21 -0.41,-0.21 0.1,-0.4 -0.08,-0.7 -0.08,-0.7 0.38,-0.261 -0.11,-0.561 -0.11,-0.561 l -0.1,-0.54 -0.1,0.5 c -0.2,0.2 0.1,0.46 0.1,0.46 v 0.301 c -0.26,0.09 -0.15,0.5 -0.15,0.5 l -0.35,0.1 -0.09,-0.25 -0.15,-0.25 v -0.45 c 0.39,-0.1 -0.05,-0.51 -0.05,-0.51 l -0.16,-0.7 -0.1,0.811 c -0.46,0.09 0,0.35 0,0.35 l 0.05,0.35 c -0.15,0.051 -0.26,0.4 -0.26,0.4 l -0.29,-0.15 c 0,0 0,-0.399 0,-0.54 0,-0.159 0,-0.72 0,-0.909 0,-0.21 -0.26,-0.21 -0.26,-0.21 0,0 -0.15,0.05 -0.15,0.21 0,0.14 -0.3,0.05 -0.3,0.05 -0.24,0.05 -0.24,0.45 -0.24,0.45 -0.35,0.04 -0.21,0.699 -0.21,0.699 -0.25,0.101 -0.25,0.45 -0.25,0.45 l -0.19,0.19 -0.15,0.21 c 0,0 -0.25,0.189 -0.41,0.399 -0.15,0.2 -0.19,0.4 -0.19,0.4 0,0 -0.21,0.45 -0.35,0.55 -0.16,0.11 -0.1,0.311 -0.1,0.311 0,0 0,0.189 -0.15,0.5 -0.15,0.3 0,0.6 0,1 0,0.399 -0.06,0.55 -0.06,0.55 -0.5,0.399 0.26,0.55 0.26,0.55 0,0.3 0.3,0.35 0.3,0.35 l 0.06,0.2 c -0.06,-0.2 -0.56,0.05 -0.56,0.05 0,0 -0.25,0.25 -0.35,0.5 -0.11,0.261 -0.21,0.15 -0.3,0.511 -0.1,0.359 0.09,0.5 0.09,0.5 l -0.09,0.21 c -0.1,-0.21 -0.31,0.399 -0.46,0.6 -0.14,0.2 -0.19,0.5 -0.09,0.7 0.1,0.21 0.09,0.1 -0.15,0.35 -0.26,0.24 0,0.4 0,0.4 0,0 -0.05,0.149 -0.11,0.3 -0.04,0.15 -0.29,0.3 -0.29,0.3 -0.3,0.05 -0.21,0.5 -0.21,0.851 0,0.35 -0.14,0.35 -0.19,0.51 -0.06,0.14 0,0.55 0,0.75 0,0.189 -0.2,0.1 -0.35,0.1 -0.15,0 -0.31,0.65 -0.31,0.65 -0.44,0.16 -0.04,0.51 -0.04,0.91 0,0.399 -0.16,0.31 -0.31,0.45 -0.15,0.159 0.05,0.55 0.05,0.55 l -0.15,0.359 c -0.46,-0.31 -0.51,0.44 -0.66,0.74 -0.15,0.311 0,0.311 0,0.561 0,0.239 -0.1,0.5 -0.1,0.699 0,0.2 -0.45,0.601 -0.45,0.601 -0.31,0.28 -0.49,0.01 -0.49,0.01 l 0.18,-0.37 c 0,0 0.08,-0.25 -0.05,-0.35 -0.14,-0.101 -0.27,-0.101 -0.27,-0.101 0,0 -0.14,0.101 -0.35,-0.149 -0.22,-0.25 0.04,-0.19 -0.18,-0.29 -0.22,-0.101 -0.36,0.29 -0.49,0.149 -0.14,-0.149 0.3,-0.199 -0.29,-0.199 -0.6,0 -0.28,0.149 -0.67,0.069 -0.41,-0.069 -0.15,-0.229 -0.15,-0.229 l -0.33,-0.15 c 0,0 0,0 -0.21,0.15 -0.19,0.149 0,0 -0.27,0.37 -0.26,0.38 0,0 -0.59,0.149 -0.61,0.15 0,0 -0.21,-0.149 -0.21,-0.15 -0.4,0 -0.69,0.229 -0.26,0.22 -0.33,0.15 -1.2,0.15 -0.87,0 -0.08,0.3 -0.54,0.149 -0.48,-0.149 0,0 -0.07,-0.529 -0.07,-0.521 0,0 -0.61,0 -0.6,0 -0.68,0.83 -0.87,0.83 -0.2,0 -0.6,0.52 -0.6,0.52 l -2.02,-0.15 -0.13,-0.3 0.19,-0.3 c 0,0 0,0 -0.12,-0.38 -0.13,-0.38 0,0 -0.67,-0.23 -0.68,-0.22 0,0 -0.75,-0.449 -0.74,-0.46 0,0 -0.47,-0.15 -0.46,-0.16 -0.2,0.15 -0.34,0.38 -0.12,0.22 -0.25,0.22 -0.33,-0.149 -0.07,-0.381 0,0 0.13,-0.381 0.13,-0.369 -0.47,-0.369 -0.88,-0.369 -0.4,0 -0.26,0.22 -0.26,-0.15 0,-0.38 -0.28,-0.15 -0.48,-0.23 -0.2,-0.08 -0.33,-0.149 -0.33,-0.149 0,0 0,0 -0.33,-0.45 l -0.41,0.45 c 0,0 -0.67,-0.15 -0.87,-0.29 -0.21,-0.15 -0.4,0 -0.4,0 l -0.28,0.59 -0.33,0.229 c 0,0 -0.14,0.83 -0.14,1.211 0,0.369 -0.61,0.3 -0.46,-0.301 0.13,-0.609 0,0 0.2,-0.3 0.21,-0.31 -0.34,-0.84 -0.34,-1.06 0,-0.221 0.46,0 0.68,-0.15 0.21,-0.15 0,-0.22 0,-0.22 L 23.5,71.95 c 0,0 -0.54,0.31 -0.73,0.31 -0.21,0 -0.15,-0.23 -0.21,-0.62 H 22.1 l -0.68,0.53 c 0,0 -0.34,0 -0.41,-0.29 -0.07,-0.311 0,-0.24 -0.28,-0.311 -0.26,-0.069 -0.4,0 -0.4,0 0,0 -0.2,0.311 -0.6,0 -0.41,-0.31 0,0 -0.21,0 -0.2,0 -0.2,-0.069 -0.48,-0.149 l -0.26,0.38 -0.46,-0.45 c 0,0 0,0 -0.4,0 -0.41,0 -0.35,0.29 -0.55,0.601 -0.2,0.3 -0.54,0 -0.54,0 0,0 -0.46,0.069 -0.67,0.149 -0.14,0.05 -0.23,0.19 -0.32,0.42 0,-0.069 -0.01,-0.149 -0.01,-0.229 0,-30.32 24.58,-54.891 54.89,-54.891 28.82,0 52.431,22.21 54.681,50.44 -0.951,0.741 -0.872,0.021 -0.872,0.021 z m 1.091,10.12 h -0.42 l -0.14,-0.699 0.279,-1.421 0.84,1.551 c -0.009,0.009 0.292,0.429 -0.559,0.569 z m -24.45,39.85 c -5.51,3.67 -11.699,6.38 -18.38,7.88 3.12,-0.63 5.71,-1.42 7.81,-2.19 3.66,-1.43 7.101,-3.239 10.32,-5.38 0.09,-0.1 0.18,-0.21 0.25,-0.31 z m -42.64,-57.8 -0.41,-0.04 c 0.01,0.01 0.02,0.02 0.02,0.02 l 0.13,0.021 h 0.26 z m -23.35,52.3 0.63,0.029 -0.64,-0.05 z m 32.72,7.76 c 3.75,0.95 6.661,0.29 6.661,0.29 -2.631,-1.04 -6.661,-0.29 -6.661,-0.29 z"
         id="path3704"
         style="fill:#2d3371;fill-opacity:1" /></g></g></svg>
